<?xml version="1.0" encoding="UTF-8" standalone="no"?>
<svg width="110px" height="134px" viewBox="0 0 110 134" version="1.1" xmlns="http://www.w3.org/2000/svg" xmlns:xlink="http://www.w3.org/1999/xlink" xmlns:sketch="http://www.bohemiancoding.com/sketch/ns">
    <!-- Generator: Sketch Beta 3.3.2 (12041) - http://www.bohemiancoding.com/sketch -->
    <title>Shape</title>
    <desc>Created with Sketch Beta.</desc>
    <defs>
        <linearGradient x1="50%" y1="0%" x2="50%" y2="97.9332749%" id="linearGradient-1">
            <stop stop-color="#01AF60" offset="0%"/>
            <stop stop-color="#65B44D" offset="100%"/>
        </linearGradient>
    </defs>
    <g id="Page-1" stroke="none" stroke-width="1" fill="none" fill-rule="evenodd" sketch:type="MSPage">
        <path d="M52.8954712,51.3220149 L56.6740925,51.3220149 C57.1936529,51.3220149 57.6187478,50.8960192 57.6187478,50.3753578 C57.6187478,49.8509098 57.1936529,49.4287007 56.6740925,49.4287007 L52.8954712,49.4287007 C52.3740214,49.4287007 51.9508159,49.8509098 51.9508159,50.3753578 C51.9508159,50.8960192 52.3740214,51.3220149 52.8954712,51.3220149 L52.8954712,51.3220149 Z M58.5634032,57.0019574 L51.0061605,57.0019574 C50.4847108,57.0019574 50.0615052,57.4241665 50.0615052,57.9486145 C50.0615052,58.4692759 50.4847108,58.8952716 51.0061605,58.8952716 L58.5634032,58.8952716 C59.0829636,58.8952716 59.5080585,58.4692759 59.5080585,57.9486145 C59.5080585,57.4222732 59.0848529,57.0019574 58.5634032,57.0019574 L58.5634032,57.0019574 Z M58.5634032,64.5752141 L51.0061605,64.5752141 C50.4847108,64.5752141 50.0615052,64.9974232 50.0615052,65.5218712 C50.0615052,66.0425326 50.4847108,66.4685283 51.0061605,66.4685283 L58.5634032,66.4685283 C59.0829636,66.4685283 59.5080585,66.0425326 59.5080585,65.5218712 C59.5080585,64.9955299 59.0848529,64.5752141 58.5634032,64.5752141 L58.5634032,64.5752141 Z M58.5634032,72.1465775 L51.0061605,72.1465775 C50.4847108,72.1465775 50.0615052,72.5687866 50.0615052,73.0932346 C50.0615052,73.613896 50.4847108,74.0398917 51.0061605,74.0398917 L58.5634032,74.0398917 C59.0829636,74.0398917 59.5080585,73.613896 59.5080585,73.0932346 C59.5080585,72.5687866 59.0848529,72.1465775 58.5634032,72.1465775 L58.5634032,72.1465775 Z M58.5634032,79.7198342 L51.0061605,79.7198342 C50.4847108,79.7198342 50.0615052,80.1420433 50.0615052,80.6664913 C50.0615052,81.1871527 50.4847108,81.6131484 51.0061605,81.6131484 L58.5634032,81.6131484 C59.0829636,81.6131484 59.5080585,81.1871527 59.5080585,80.6664913 C59.5080585,80.1420433 59.0848529,79.7198342 58.5634032,79.7198342 L58.5634032,79.7198342 Z M58.5634032,87.2930909 L51.0061605,87.2930909 C50.4847108,87.2930909 50.0615052,87.7153 50.0615052,88.239748 C50.0615052,88.7604094 50.4847108,89.1864051 51.0061605,89.1864051 L58.5634032,89.1864051 C59.0829636,89.1864051 59.5080585,88.7604094 59.5080585,88.239748 C59.5080585,87.7153 59.0848529,87.2930909 58.5634032,87.2930909 L58.5634032,87.2930909 Z M58.5634032,95.4396044 L51.0061605,95.4396044 C50.4847108,95.4396044 50.0615052,95.8618134 50.0615052,96.3862614 C50.0615052,96.9069228 50.4847108,97.3329185 51.0061605,97.3329185 L58.5634032,97.3329185 C59.0829636,97.3329185 59.5080585,96.9069228 59.5080585,96.3862614 C59.5080585,95.8618134 59.0848529,95.4396044 58.5634032,95.4396044 L58.5634032,95.4396044 Z M58.5634032,102.439604 L51.0061605,102.439604 C50.4847108,102.439604 50.0615052,102.861813 50.0615052,103.386261 C50.0615052,103.906923 50.4847108,104.332919 51.0061605,104.332919 L58.5634032,104.332919 C59.0829636,104.332919 59.5080585,103.906923 59.5080585,103.386261 C59.5080585,102.861813 59.0848529,102.439604 58.5634032,102.439604 L58.5634032,102.439604 Z M58.5634032,110.012861 L51.0061605,110.012861 C50.4847108,110.012861 50.0615052,110.43507 50.0615052,110.959518 C50.0615052,111.48018 50.4847108,111.906175 51.0061605,111.906175 L58.5634032,111.906175 C59.0829636,111.906175 59.5080585,111.48018 59.5080585,110.959518 C59.5080585,110.43507 59.0848529,110.012861 58.5634032,110.012861 L58.5634032,110.012861 Z M43.4489179,95.4396044 L41.5596072,95.4396044 C41.0381575,95.4396044 40.6149519,95.8618134 40.6149519,96.3862614 C40.6149519,96.9069228 41.0381575,97.3329185 41.5596072,97.3329185 L43.4489179,97.3329185 C43.9684783,97.3329185 44.3935732,96.9069228 44.3935732,96.3862614 C44.3935732,95.8618134 43.9703676,95.4396044 43.4489179,95.4396044 L43.4489179,95.4396044 Z M43.4489179,102.439604 L41.5596072,102.439604 C41.0381575,102.439604 40.6149519,102.861813 40.6149519,103.386261 C40.6149519,103.906923 41.0381575,104.332919 41.5596072,104.332919 L43.4489179,104.332919 C43.9684783,104.332919 44.3935732,103.906923 44.3935732,103.386261 C44.3935732,102.861813 43.9703676,102.439604 43.4489179,102.439604 L43.4489179,102.439604 Z M28.3060929,104.228786 C28.5517033,104.228786 28.7973137,104.124654 28.969241,103.944789 C29.1487255,103.774391 29.2507483,103.526367 29.2507483,103.282129 C29.2507483,103.026532 29.1468362,102.778508 28.969241,102.610003 C28.6178292,102.257846 27.9849101,102.257846 27.637277,102.610003 C27.4559031,102.780401 27.3614376,103.028425 27.3614376,103.282129 C27.3614376,103.526367 27.4559031,103.774391 27.637277,103.952362 C27.8148722,104.126547 28.051036,104.228786 28.3060929,104.228786 L28.3060929,104.228786 Z M80.5360862,102.610003 C80.3547123,102.780401 80.2526896,103.028425 80.2526896,103.282129 C80.2526896,103.526367 80.3566017,103.774391 80.5360862,103.944789 C80.7061241,104.126547 80.9517345,104.228786 81.2049021,104.228786 C81.4505125,104.228786 81.6961229,104.124654 81.8680502,103.944789 C82.0475347,103.774391 82.1495575,103.526367 82.1495575,103.282129 C82.1495575,103.026532 82.0456454,102.778508 81.8680502,102.610003 C81.5185277,102.257846 80.8856086,102.257846 80.5360862,102.610003 L80.5360862,102.610003 Z M43.4489179,110.012861 L41.5596072,110.012861 C41.0381575,110.012861 40.6149519,110.43507 40.6149519,110.959518 C40.6149519,111.48018 41.0381575,111.906175 41.5596072,111.906175 L43.4489179,111.906175 C43.9684783,111.906175 44.3935732,111.48018 44.3935732,110.959518 C44.3935732,110.43507 43.9703676,110.012861 43.4489179,110.012861 L43.4489179,110.012861 Z M68.0099565,95.4396044 L66.1206458,95.4396044 C65.5991961,95.4396044 65.1759905,95.8618134 65.1759905,96.3862614 C65.1759905,96.9069228 65.5991961,97.3329185 66.1206458,97.3329185 L68.0099565,97.3329185 C68.5295169,97.3329185 68.9546118,96.9069228 68.9546118,96.3862614 C68.9546118,95.8618134 68.5314062,95.4396044 68.0099565,95.4396044 L68.0099565,95.4396044 Z M68.0099565,102.439604 L66.1206458,102.439604 C65.5991961,102.439604 65.1759905,102.861813 65.1759905,103.386261 C65.1759905,103.906923 65.5991961,104.332919 66.1206458,104.332919 L68.0099565,104.332919 C68.5295169,104.332919 68.9546118,103.906923 68.9546118,103.386261 C68.9546118,102.861813 68.5314062,102.439604 68.0099565,102.439604 L68.0099565,102.439604 Z M68.0099565,110.012861 L66.1206458,110.012861 C65.5991961,110.012861 65.1759905,110.43507 65.1759905,110.959518 C65.1759905,111.48018 65.5991961,111.906175 66.1206458,111.906175 L68.0099565,111.906175 C68.5295169,111.906175 68.9546118,111.48018 68.9546118,110.959518 C68.9546118,110.43507 68.5314062,110.012861 68.0099565,110.012861 L68.0099565,110.012861 Z M59.5080585,20.4671617 L59.5080585,16.1862268 C59.5080585,13.9009157 57.8832513,11.9886006 55.7294372,11.5493362 L55.7294381,7.63186934 C55.7294381,7.10929612 55.3043432,6.68517874 54.7847828,6.68517874 C54.2633331,6.68517874 53.8401275,7.10929612 53.8401275,7.63186934 L53.8401265,11.5493362 C51.6863124,11.9886006 50.0615052,13.9009157 50.0615052,16.1862268 L50.0615052,20.4671617 C48.636965,21.4252126 47.5147144,22.8017007 46.8742381,24.4205416 C20.576923,28.286826 0.315955479,51.030121 0.315955479,78.4387073 C0.315955479,108.554829 24.7636354,133.055181 54.8150108,133.055181 C84.8663862,133.055181 109.315955,108.556722 109.315955,78.4387073 C109.317845,51.0055071 89.0209804,28.2489584 62.6896577,24.4110747 C62.0491813,22.7960206 60.9288201,21.4214258 59.5080585,20.4671617 Z M86.5535406,63.2385343 C86.5365368,63.0946425 86.519533,62.742486 86.519533,62.5550479 C86.519533,60.0842729 88.495752,57.9467212 90.9726383,57.9467212 L90.9896421,57.9467212 C91.0727717,57.9467212 91.1540121,58.101973 91.2390311,58.1057596 C91.5054239,58.1209061 91.7623701,58.1568791 91.9531905,57.9732276 C92.1459002,57.7876828 92.2498123,57.5339787 92.2403657,57.2670214 L92.2290299,57.0644368 C92.2252512,57.017104 92.2214726,56.9716644 92.2214726,56.9205449 C92.2214726,53.1414898 94.2449243,49.5650194 97.3622869,47.4691206 C102.523884,54.5652621 105.951093,62.9999768 107.041225,72.1484708 L84.0369788,72.1484708 C81.9511799,72.1484708 80.2583575,70.4520613 80.2583575,68.3618425 C80.2583575,66.273517 81.9511799,64.5752141 84.0369788,64.5752141 L85.6636753,64.5752141 C86.185125,64.5752141 86.6083306,64.1208187 86.6083306,63.5944774 C86.6083306,63.4827719 86.5875482,63.33888 86.5535406,63.2385343 L86.5535406,63.2385343 Z M51.9508159,16.1858904 C51.9508159,14.6201196 53.2223219,13.3459192 54.7847819,13.3459192 C56.3472418,13.3459192 57.6187478,14.6201196 57.6187478,16.1858904 L57.6187478,19.5238033 C56.7288825,19.2076199 55.7785593,19.0258617 54.7847819,19.0258617 C53.7891151,19.0258617 52.8387919,19.2076199 51.9508159,19.5238033 L51.9508159,16.1858904 L51.9508159,16.1858904 Z M48.1721945,27.5457755 C48.1721945,23.8916791 51.136523,20.9191759 54.7847819,20.9191759 C58.4311514,20.9191759 61.3973692,23.8916791 61.3973692,27.5457755 L61.3973692,28.5511253 C59.4853868,27.3204711 57.2201033,26.5972251 54.7847819,26.5972251 C52.3494604,26.5972251 50.0822876,27.3185778 48.1721945,28.5511253 L48.1721945,27.5457755 L48.1721945,27.5457755 Z M54.7847819,28.4924326 C60.0125045,28.4924326 64.3352472,32.3869798 65.0550746,37.4307688 C62.1417576,35.3822029 58.604968,34.1723751 54.7847819,34.1723751 C50.9645957,34.1723751 47.4259168,35.3822029 44.5125998,37.4307688 C45.2343165,32.3888732 49.5570593,28.4924326 54.7847819,28.4924326 L54.7847819,28.4924326 Z M54.7847819,41.7475251 C49.0545026,41.7475251 44.3935732,46.4183312 44.3935732,52.1607531 L44.3935732,87.2930909 L42.2114194,87.2930909 C40.968253,87.2930909 39.7968804,87.5335418 38.7256412,87.9633242 L38.7256412,52.1607531 C38.7256412,43.2848962 45.9276935,36.0675826 54.7847819,36.0675826 C63.6399809,36.0675826 70.8439225,43.2848962 70.8439225,52.1607531 L70.8439225,88.0068704 C69.7500116,87.552475 68.5502993,87.2930909 67.2901291,87.2930909 L65.1759905,87.2930909 L65.1759905,52.1607531 C65.1759905,46.4183312 60.5150611,41.7475251 54.7847819,41.7475251 L54.7847819,41.7475251 Z M23.5563659,75.4201177 C23.7264039,75.6757152 24.0079112,75.8309669 24.3120902,75.8385402 C26.3374312,75.8972329 27.9849101,77.6144689 27.9849101,79.6649281 C27.9849101,81.7835467 26.2901985,83.5064626 24.2062888,83.5064626 L2.45465515,83.5064626 C2.29595305,81.8346662 2.20715545,80.1458299 2.20715545,78.4361672 C2.20715545,72.5668933 3.1725932,66.924817 4.9447666,61.6481504 C7.06079454,59.8476086 9.81540949,58.7854594 12.5567993,58.7854594 C18.9804555,58.7854594 24.2081781,64.0223664 24.2081781,70.4596346 C24.2081781,71.8455406 23.9531212,73.2257666 23.4543432,74.5567665 C23.3485418,74.8464435 23.3844387,75.168307 23.5563659,75.4201177 L23.5563659,75.4201177 Z M2.67948312,85.3997768 L24.2081781,85.3997768 C27.3330979,85.3997768 29.8761101,82.8267628 29.8761101,79.6649281 C29.8761101,77.0218615 28.0397001,74.7498845 25.5873749,74.1175176 C25.9274508,72.9190497 26.0993781,71.6921821 26.0993781,70.4596346 C26.0993781,62.9791503 20.0252443,56.8921452 12.5586886,56.8921452 C10.2858478,56.8921452 8.07346506,57.4809659 6.09913541,58.5715149 C12.9176576,41.8459775 28.0699291,29.3936501 46.3603456,26.4173602 C46.3131128,26.7865565 46.2847732,27.1614327 46.2847732,27.5457755 L46.2847732,30.0449502 C43.9609211,32.2866342 42.5061519,35.4257491 42.5061519,38.9056605 L42.5061519,39.0760588 C39.0260416,42.3590656 36.8382199,47.0052586 36.8382199,52.1588598 L36.8382199,88.9857138 C34.9281268,90.3470067 33.5904949,92.427759 33.1918503,94.8644543 L22.6683899,94.8644543 C22.1469402,94.8644543 21.7237346,95.2866634 21.7237346,95.8111114 L21.7237346,110.010968 L20.7790793,110.010968 C20.2576295,110.010968 19.8344239,110.433177 19.8344239,110.957625 L19.8344239,117.765983 C10.6618207,109.566039 4.37419478,98.2023672 2.67948312,85.3997768 L2.67948312,85.3997768 Z M33.0577092,96.7596618 L33.0577092,110.012861 L23.6111559,110.012861 L23.6111559,96.7596618 L33.0577092,96.7596618 L33.0577092,96.7596618 Z M30.4863574,125.159374 C27.3689948,123.521658 24.4330061,121.586691 21.7218453,119.379086 L21.7218453,111.906175 L34.0023646,111.906175 C34.521925,111.906175 34.9470199,111.48018 34.9470199,110.959518 L34.9470199,96.3942522 C34.9470199,92.3520264 38.1361763,89.1864051 42.2114194,89.1864051 L45.3382285,89.1864051 C45.857789,89.1864051 46.2828839,88.7604094 46.2828839,88.239748 L46.2828839,52.1607531 C46.2828839,47.4615473 50.0974021,43.6408393 54.7847819,43.6408393 C59.4702723,43.6408393 63.2866798,47.4615473 63.2866798,52.1607531 L63.2866798,88.239748 C63.2866798,88.7604094 63.7098854,89.1864051 64.2313352,89.1864051 L67.2901291,89.1864051 C71.3332539,89.1864051 74.6225438,92.4182924 74.6225438,96.3942522 L74.6225438,110.959518 C74.6225438,111.48018 75.0457494,111.906175 75.5671991,111.906175 L87.8477184,111.906175 L87.8477184,119.432099 C85.1535614,121.616984 82.2402444,123.536804 79.1493321,125.159374 C79.1493321,125.159374 77.6054703,126.040894 75.298917,126.997783 C68.9999553,129.674929 62.077521,131.157394 54.8150108,131.157394 C47.5468327,131.157394 40.6187305,129.671142 34.3141008,126.990209 C33.1375729,126.48816 30.4863574,125.159374 30.4863574,125.159374 Z M76.5118545,110.012861 L76.5118545,96.7596618 L85.9584078,96.7596618 L85.9584078,110.012861 L76.5118545,110.012861 L76.5118545,110.012861 Z M89.7370291,117.822782 L89.7370291,110.959518 C89.7370291,110.43507 89.3119342,110.012861 88.7923738,110.012861 L87.8477184,110.012861 L87.8477184,95.8130047 C87.8477184,95.2885567 87.4226235,94.8663476 86.9030631,94.8663476 L76.3720455,94.8663476 C75.9620651,92.4921317 74.6187652,90.4322058 72.7332331,89.0614464 L72.7332331,52.1607531 C72.7332331,47.0052586 70.5454114,42.3609589 67.0653012,39.0779521 L67.0653012,38.9075539 C67.0653012,35.4276424 65.6086426,32.2885275 63.2866798,30.0468435 L63.2866798,27.5476688 C63.2866798,27.1595394 63.2564509,26.7827699 63.2073288,26.4078937 C76.5458621,28.5605919 88.2199126,35.7495058 96.2211433,45.9639358 C92.7372544,48.3002855 90.5324289,52.1399266 90.3472764,56.3374042 C87.1467842,56.6403344 84.634001,59.3704935 84.6321117,62.6837933 L84.0388681,62.6837933 C80.9139483,62.6837933 78.3709362,65.2321942 78.3709362,68.3637358 C78.3709362,71.4952775 80.9139483,74.0436783 84.0388681,74.0436783 L107.239603,74.0436783 C107.35863,75.493957 107.430423,76.9574889 107.430423,78.4399539 C107.428534,94.0863022 100.581672,108.1612 89.7370291,117.822782 Z M53.2121786,2.57341434 C53.2121786,2.57341434 51.4696022,2.74919401 50.3071492,2.86671527 C50.2023741,2.87826651 50.1097308,2.94204941 50.0749895,3.03897935 C50.0402483,3.13590928 50.0749895,3.23685703 50.1521923,3.30063994 C51.0157603,4.01832321 52.313318,5.09309032 52.313318,5.09309032 C52.3122151,5.09309032 51.9570824,6.65652491 51.7210626,7.69965169 C51.7012104,7.79407048 51.7387089,7.89401378 51.8291464,7.95377886 C51.9190325,8.01354395 52.0348366,8.01454841 52.1258256,7.96784124 C53.1426962,7.44150669 54.6657962,6.64999595 54.6657962,6.64999595 C54.6657962,6.64999595 56.1894478,7.44150669 57.204664,7.96834346 C57.2973073,8.01454841 57.4131114,8.01354395 57.5029975,7.95377886 C57.593435,7.89401378 57.6309335,7.79407048 57.6105299,7.70015391 C57.37451,6.65652491 57.0199288,5.09309032 57.0199288,5.09309032 C57.0199288,5.09309032 58.3174866,4.01832321 59.1810545,3.30214662 C59.2582573,3.2363548 59.2924471,3.13540705 59.2582573,3.03897935 C59.2240675,2.94255164 59.1314242,2.87876873 59.026649,2.86771973 C57.8641961,2.74919401 56.1210682,2.57341434 56.1210682,2.57341434 C56.1210682,2.57341434 55.398671,1.11795869 54.9172566,0.147654921 C54.8720379,0.0607695424 54.7771888,0 54.6657962,0 C54.5544037,0 54.4590031,0.06127177 54.4159902,0.147654921 C53.9340244,1.11795869 53.2121786,2.57341434 53.2121786,2.57341434 Z M65.0836639,118.092452 C65.0836639,118.092452 63.7381551,118.228178 62.8405816,118.318921 C62.7596807,118.32784 62.6881474,118.377089 62.6613223,118.451932 C62.6344973,118.526775 62.6613223,118.604721 62.7209335,118.65397 C63.3877267,119.20812 64.3896198,120.037988 64.3896198,120.037988 C64.3887682,120.037988 64.1145569,121.245175 63.9323171,122.050612 C63.9169886,122.123517 63.9459426,122.200687 64.0157728,122.246833 C64.0851772,122.29298 64.1745939,122.293756 64.2448499,122.257691 C65.0300138,121.851289 66.2060566,121.240134 66.2060566,121.240134 C66.2060566,121.240134 67.3825252,121.851289 68.1664118,122.258079 C68.2379451,122.293756 68.3273619,122.29298 68.3967663,122.246833 C68.4665965,122.200687 68.4955505,122.123517 68.4797961,122.051 C68.2975563,121.245175 68.0237708,120.037988 68.0237708,120.037988 C68.0237708,120.037988 69.0256639,119.20812 69.6924571,118.655133 C69.7520683,118.604333 69.7784675,118.526388 69.7520683,118.451932 C69.7256691,118.377477 69.6541357,118.328227 69.5732348,118.319696 C68.6756613,118.228178 67.3297267,118.092452 67.3297267,118.092452 C67.3297267,118.092452 66.7719367,116.96864 66.4002186,116.219432 C66.3653035,116.152344 66.292067,116.105422 66.2060566,116.105422 C66.1200462,116.105422 66.0463839,116.152732 66.013172,116.219432 C65.6410281,116.96864 65.0836639,118.092452 65.0836639,118.092452 Z M76.3889143,118.092452 C76.3889143,118.092452 75.0434055,118.228178 74.145832,118.318921 C74.0649311,118.32784 73.9933978,118.377089 73.9665727,118.451932 C73.9397477,118.526775 73.9665727,118.604721 74.0261839,118.65397 C74.6929772,119.20812 75.6948702,120.037988 75.6948702,120.037988 C75.6940186,120.037988 75.4198074,121.245175 75.2375676,122.050612 C75.222239,122.123517 75.251193,122.200687 75.3210232,122.246833 C75.3904276,122.29298 75.4798443,122.293756 75.5501003,122.257691 C76.3352643,121.851289 77.511307,121.240134 77.511307,121.240134 C77.511307,121.240134 78.6877756,121.851289 79.4716622,122.258079 C79.5431956,122.293756 79.6326123,122.29298 79.7020167,122.246833 C79.7718469,122.200687 79.8008009,122.123517 79.7850465,122.051 C79.6028067,121.245175 79.3290212,120.037988 79.3290212,120.037988 C79.3290212,120.037988 80.3309143,119.20812 80.9977075,118.655133 C81.0573187,118.604333 81.0837179,118.526388 81.0573187,118.451932 C81.0309195,118.377477 80.9593861,118.328227 80.8784852,118.319696 C79.9809117,118.228178 78.6349771,118.092452 78.6349771,118.092452 C78.6349771,118.092452 78.0771871,116.96864 77.705469,116.219432 C77.6705539,116.152344 77.5973174,116.105422 77.511307,116.105422 C77.4252967,116.105422 77.3516343,116.152732 77.3184224,116.219432 C76.9462785,116.96864 76.3889143,118.092452 76.3889143,118.092452 Z M53.6448379,118.092452 C53.6448379,118.092452 52.2993291,118.228178 51.4017556,118.318921 C51.3208547,118.32784 51.2493214,118.377089 51.2224963,118.451932 C51.1956713,118.526775 51.2224963,118.604721 51.2821075,118.65397 C51.9489007,119.20812 52.9507938,120.037988 52.9507938,120.037988 C52.9499422,120.037988 52.6757309,121.245175 52.4934912,122.050612 C52.4781626,122.123517 52.5071166,122.200687 52.5769468,122.246833 C52.6463512,122.29298 52.7357679,122.293756 52.8060239,122.257691 C53.5911878,121.851289 54.7672306,121.240134 54.7672306,121.240134 C54.7672306,121.240134 55.9436992,121.851289 56.7275858,122.258079 C56.7991191,122.293756 56.8885359,122.29298 56.9579403,122.246833 C57.0277705,122.200687 57.0567245,122.123517 57.0409701,122.051 C56.8587303,121.245175 56.5849448,120.037988 56.5849448,120.037988 C56.5849448,120.037988 57.5868379,119.20812 58.2536311,118.655133 C58.3132423,118.604333 58.3396415,118.526388 58.3132423,118.451932 C58.2868431,118.377477 58.2153097,118.328227 58.1344088,118.319696 C57.2368353,118.228178 55.8909007,118.092452 55.8909007,118.092452 C55.8909007,118.092452 55.3331107,116.96864 54.9613926,116.219432 C54.9264775,116.152344 54.853241,116.105422 54.7672306,116.105422 C54.6812203,116.105422 54.6075579,116.152732 54.574346,116.219432 C54.2022021,116.96864 53.6448379,118.092452 53.6448379,118.092452 Z M42.2060119,118.092452 C42.2060119,118.092452 40.8605031,118.228178 39.9629296,118.318921 C39.8820287,118.32784 39.8104954,118.377089 39.7836703,118.451932 C39.7568453,118.526775 39.7836703,118.604721 39.8432815,118.65397 C40.5100748,119.20812 41.5119678,120.037988 41.5119678,120.037988 C41.5111162,120.037988 41.236905,121.245175 41.0546652,122.050612 C41.0393366,122.123517 41.0682906,122.200687 41.1381208,122.246833 C41.2075252,122.29298 41.2969419,122.293756 41.3671979,122.257691 C42.1523619,121.851289 43.3284046,121.240134 43.3284046,121.240134 C43.3284046,121.240134 44.5048732,121.851289 45.2887598,122.258079 C45.3602932,122.293756 45.4497099,122.29298 45.5191143,122.246833 C45.5889445,122.200687 45.6178985,122.123517 45.6021441,122.051 C45.4199043,121.245175 45.1461188,120.037988 45.1461188,120.037988 C45.1461188,120.037988 46.1480119,119.20812 46.8148051,118.655133 C46.8744163,118.604333 46.9008155,118.526388 46.8744163,118.451932 C46.8480171,118.377477 46.7764837,118.328227 46.6955828,118.319696 C45.7980093,118.228178 44.4520747,118.092452 44.4520747,118.092452 C44.4520747,118.092452 43.8942847,116.96864 43.5225666,116.219432 C43.4876515,116.152344 43.414415,116.105422 43.3284046,116.105422 C43.2423943,116.105422 43.1687319,116.152732 43.13552,116.219432 C42.7633761,116.96864 42.2060119,118.092452 42.2060119,118.092452 Z M30.7671859,118.092452 C30.7671859,118.092452 29.4216771,118.228178 28.5241036,118.318921 C28.4432027,118.32784 28.3716694,118.377089 28.3448444,118.451932 C28.3180193,118.526775 28.3448444,118.604721 28.4044555,118.65397 C29.0712488,119.20812 30.0731418,120.037988 30.0731418,120.037988 C30.0722902,120.037988 29.798079,121.245175 29.6158392,122.050612 C29.6005106,122.123517 29.6294646,122.200687 29.6992948,122.246833 C29.7686992,122.29298 29.8581159,122.293756 29.9283719,122.257691 C30.7135359,121.851289 31.8895786,121.240134 31.8895786,121.240134 C31.8895786,121.240134 33.0660472,121.851289 33.8499338,122.258079 C33.9214672,122.293756 34.0108839,122.29298 34.0802883,122.246833 C34.1501185,122.200687 34.1790725,122.123517 34.1633181,122.051 C33.9810783,121.245175 33.7072928,120.037988 33.7072928,120.037988 C33.7072928,120.037988 34.7091859,119.20812 35.3759791,118.655133 C35.4355903,118.604333 35.4619895,118.526388 35.4355903,118.451932 C35.4091911,118.377477 35.3376577,118.328227 35.2567569,118.319696 C34.3591833,118.228178 33.0132488,118.092452 33.0132488,118.092452 C33.0132488,118.092452 32.4554587,116.96864 32.0837407,116.219432 C32.0488256,116.152344 31.975589,116.105422 31.8895786,116.105422 C31.8035683,116.105422 31.7299059,116.152732 31.696694,116.219432 C31.3245501,116.96864 30.7671859,118.092452 30.7671859,118.092452 Z" id="Shape" fill="url(#linearGradient-1)" sketch:type="MSShapeGroup"/>
    </g>
</svg>