<?xml version="1.0" encoding="UTF-8" standalone="no"?>
<svg width="110px" height="136px" viewBox="0 0 110 136" version="1.1" xmlns="http://www.w3.org/2000/svg" xmlns:xlink="http://www.w3.org/1999/xlink" xmlns:sketch="http://www.bohemiancoding.com/sketch/ns">
    <!-- Generator: Sketch Beta 3.3.2 (12041) - http://www.bohemiancoding.com/sketch -->
    <title>Shape</title>
    <desc>Created with Sketch Beta.</desc>
    <defs>
        <linearGradient x1="50%" y1="0%" x2="50%" y2="97.9332749%" id="linearGradient-1">
            <stop stop-color="#01AF60" offset="0%"/>
            <stop stop-color="#65B44D" offset="100%"/>
        </linearGradient>
    </defs>
    <g id="Page-1" stroke="none" stroke-width="1" fill="none" fill-rule="evenodd" sketch:type="MSPage">
        <path d="M55.9125212,21.1277398 L55.9125212,9.77183819 L62.8537283,9.77183819 L59.7572018,15.9742279 C59.6117274,16.2676865 59.6268416,16.6160503 59.7987659,16.8943627 C59.9706902,17.172675 60.2748639,17.3430703 60.601709,17.3430703 L70.0480986,17.3430703 C70.4051721,17.3430703 70.7320172,17.1404892 70.8926058,16.8205247 L74.6711616,9.24739925 C74.816636,8.95394064 74.8015218,8.60557687 74.6314868,8.32726451 C74.4614518,8.04895215 74.1553888,7.87855683 73.8266544,7.87855683 L65.91058,7.87855683 L69.0052172,1.67616709 C69.1506916,1.38270848 69.1355774,1.03434471 68.9655423,0.756032353 C68.7955073,0.477719993 68.4894443,0.307324671 68.16071,0.307324671 L54.9697716,0.307324671 C54.4483308,0.307324671 54.0251326,0.731419695 54.0251326,1.25396535 L54.0251326,8.82709079 L54.0251326,21.1182734 C51.8581308,21.546155 50.2125698,23.4621557 50.2125698,25.758706 C22.4137345,28.4850311 0.5,51.9257477 0.5,80.4328851 C0.5,110.547418 24.9472562,135.046479 55,135.046479 C85.0489652,135.046479 109.5,110.549312 109.5,80.4328851 C109.5,51.8822022 87.5182515,28.4111932 59.6287309,26.0445915 C59.6570701,23.4829818 58.0474053,21.580234 55.9125212,21.1277398 Z M72.2982286,9.77183819 L69.4643117,15.4516823 L62.1301348,15.4516823 L64.9640517,9.77183819 L72.2982286,9.77183819 L72.2982286,9.77183819 Z M55.910632,2.19871275 L66.6303948,2.19871275 L63.796478,7.87855683 L55.910632,7.87855683 L55.910632,2.19871275 L55.910632,2.19871275 Z M101.253302,104.435906 L101.253302,98.7560621 L104.327157,98.7560621 C103.601674,100.708035 102.757167,102.59753 101.816307,104.435906 L101.253302,104.435906 L101.253302,104.435906 Z M103.254047,85.4141083 C103.189812,85.169875 103.176587,85.1187565 103.176587,84.9294283 C103.176587,83.3314988 104.448071,82.0346011 106.010504,82.0346011 C106.507384,82.0346011 107.081724,82.2333957 107.555933,82.5457871 C107.359448,87.5270103 106.467709,92.3264786 104.978958,96.8627807 L101.253302,96.8627807 L101.253302,87.3963739 L102.524786,87.3963739 C102.808178,87.3963739 103.076455,87.2676308 103.255936,87.0480102 C103.437307,86.8302828 103.50721,86.5406108 103.452421,86.2641917 C103.371182,85.8590295 103.303168,85.607223 103.254047,85.4141083 L103.254047,85.4141083 Z M107.865775,80.4745373 C106.921136,80.2681696 106.679308,80.1413198 106.138975,80.1413198 C103.53366,80.1413198 101.351544,82.2901941 101.351544,84.9294283 C101.351544,85.1660885 101.306202,85.3440569 101.332652,85.5030926 L100.308663,85.5030926 C99.7872222,85.5030926 99.364024,85.9252943 99.364024,86.4497332 L99.364024,96.8627807 L86.1390786,96.8627807 L86.1390786,86.4497332 C86.1390786,85.9252943 85.7158803,85.5030926 85.1944396,85.5030926 L82.3605228,85.5030926 L82.3605228,80.7698892 C82.3605228,80.2454502 81.9373245,79.8232485 81.4158838,79.8232485 C80.8944431,79.8232485 80.4712448,80.2454502 80.4712448,80.7698892 L80.4712448,85.5030926 L77.637328,85.5030926 C77.1158873,85.5030926 76.692689,85.9252943 76.692689,86.4497332 L76.692689,89.2896553 L73.8247651,89.2896553 C72.3057857,89.2896553 71.0248553,87.9397457 71.0248553,86.3418162 L71.0248553,71.3034824 C71.0248553,70.7790434 70.601657,70.3568417 70.0802163,70.3568417 L67.182064,70.3568417 C67.0365896,68.2477263 66.3999029,66.3222591 65.3891393,64.6769976 L105.196225,64.6769976 C106.756768,69.6544343 107.865775,74.9461557 107.865775,80.4347784 C107.865775,80.4480313 107.865775,80.459391 107.865775,80.4745373 L107.865775,80.4745373 Z M99.364024,98.7560621 L99.364024,104.435906 L95.5854682,104.435906 L95.5854682,98.7560621 L99.364024,98.7560621 L99.364024,98.7560621 Z M93.6961902,98.7560621 L93.6961902,104.435906 L89.9176344,104.435906 L89.9176344,98.7560621 L93.6961902,98.7560621 L93.6961902,98.7560621 Z M78.5819669,96.8627807 L78.5819669,87.3963739 L84.2498007,87.3963739 L84.2498007,96.8627807 L78.5819669,96.8627807 L78.5819669,96.8627807 Z M82.3605228,98.7560621 L82.3605228,104.435906 L78.5819669,104.435906 L78.5819669,98.7560621 L82.3605228,98.7560621 L82.3605228,98.7560621 Z M84.2498007,98.7560621 L88.0283565,98.7560621 L88.0283565,104.435906 L84.2498007,104.435906 L84.2498007,98.7560621 L84.2498007,98.7560621 Z M61.5784657,96.8627807 L61.5784657,82.6631705 C61.5784657,82.1387316 61.1552674,81.7165298 60.6338267,81.7165298 L49.2981593,81.7165298 C48.7767185,81.7165298 48.3535203,82.1387316 48.3535203,82.6631705 L48.3535203,96.8627807 L33.239297,96.8627807 L33.239297,91.1829366 L36.0392068,91.1829366 C38.6180712,91.1829366 40.7964086,88.9640109 40.7964086,86.3418162 L40.7964086,72.2501231 L43.5963185,72.2501231 C44.1177592,72.2501231 44.5409575,71.8241347 44.5409575,71.3034824 C44.5409575,65.3642587 49.0072105,60.8904349 54.931986,60.8904349 C60.8567615,60.8904349 65.3230145,65.3642587 65.3230145,71.3034824 C65.3230145,71.8241347 65.7462128,72.2501231 66.2676535,72.2501231 L69.1355774,72.2501231 L69.1355774,86.3418162 C69.1355774,89.0113429 71.240233,91.1829366 73.8247651,91.1829366 L76.692689,91.1829366 L76.692689,96.8627807 L61.5784657,96.8627807 L61.5784657,96.8627807 Z M76.692689,98.7560621 L76.692689,104.435906 L72.9141332,104.435906 L72.9141332,98.7560621 L76.692689,98.7560621 L76.692689,98.7560621 Z M71.0248553,98.7560621 L71.0248553,104.435906 L67.2462994,104.435906 L67.2462994,98.7560621 L71.0248553,98.7560621 L71.0248553,98.7560621 Z M65.3570215,98.7560621 L65.3570215,104.435906 L61.5784657,104.435906 L61.5784657,98.7560621 L65.3570215,98.7560621 L65.3570215,98.7560621 Z M50.2427982,96.8627807 L50.2427982,83.6098112 L59.6891878,83.6098112 L59.6891878,96.8627807 L50.2427982,96.8627807 L50.2427982,96.8627807 Z M59.6891878,98.7560621 L59.6891878,104.435906 L55.910632,104.435906 L55.910632,98.7560621 L59.6891878,98.7560621 L59.6891878,98.7560621 Z M54.021354,98.7560621 L54.021354,104.435906 L50.2427982,104.435906 L50.2427982,98.7560621 L54.021354,98.7560621 L54.021354,98.7560621 Z M48.3535203,98.7560621 L48.3535203,104.435906 L44.5749645,104.435906 L44.5749645,98.7560621 L48.3535203,98.7560621 L48.3535203,98.7560621 Z M42.6856866,98.7560621 L42.6856866,104.435906 L38.9071307,104.435906 L38.9071307,98.7560621 L42.6856866,98.7560621 L42.6856866,98.7560621 Z M37.0178528,98.7560621 L37.0178528,104.435906 L33.239297,104.435906 L33.239297,98.7560621 L37.0178528,98.7560621 L37.0178528,98.7560621 Z M58.7445488,47.6374654 L51.1874372,47.6374654 C50.6659965,47.6374654 50.2427982,48.0596671 50.2427982,48.5841061 L50.2427982,59.8623831 C48.8220612,60.4171146 47.5467986,61.2236524 46.4642424,62.2327714 L46.4642424,43.8527959 L63.4677436,43.8527959 L63.4677436,62.3009295 C62.3889659,61.2766643 61.1137033,60.4587667 59.6891878,59.8945689 L59.6891878,48.5859993 C59.6891878,48.0577738 59.2678788,47.6374654 58.7445488,47.6374654 L58.7445488,47.6374654 Z M57.7999099,49.5307467 L57.7999099,59.3190114 C56.8854994,59.1164303 55.9295247,58.9971535 54.931986,58.9971535 C53.9590079,58.9971535 53.0275939,59.1088571 52.1320761,59.3038651 L52.1320761,49.5307467 L57.7999099,49.5307467 L57.7999099,49.5307467 Z M46.1676257,41.9576213 L44.9093667,38.1710586 L64.9583839,38.1710586 L63.6982355,41.9576213 L46.1676257,41.9576213 L46.1676257,41.9576213 Z M67.1650605,37.5235564 C67.1707283,37.5046235 67.168839,37.4856907 67.1726176,37.4686512 C67.1782854,37.4497184 67.1896211,37.4345721 67.1933997,37.4175326 C67.202846,37.3777737 67.1952889,37.3361215 67.1990675,37.2944693 C67.1990675,37.2698567 67.2085139,37.2490306 67.2085139,37.2263112 L67.2009568,37.2263112 C67.2009568,36.8571213 66.9969148,36.5087575 66.6473983,36.357295 C66.5737165,36.323216 61.5369016,34.0531716 58.3780289,28.9734977 C58.6746455,28.6573197 58.9126946,28.2881299 59.1148473,27.8981139 C80.1500676,29.5395889 97.7543592,43.6123492 104.574652,62.7856095 L65.3570215,62.7856095 L65.3570215,42.9061553 L67.1650605,37.5235564 L67.1650605,37.5235564 Z M54.9338753,22.9168907 C56.4963081,22.9168907 57.7677921,24.191069 57.7677921,25.7568127 C57.7677921,27.3225564 56.4963081,28.5967347 54.9338753,28.5967347 C53.3714424,28.5967347 52.0999584,27.3225564 52.0999584,25.7568127 C52.0999584,24.191069 53.3714424,22.9168907 54.9338753,22.9168907 L54.9338753,22.9168907 Z M53.0049225,30.0678144 C53.5943772,30.334767 54.2442888,30.4919094 54.9338753,30.4919094 C55.6234617,30.4919094 56.2733733,30.334767 56.862828,30.0678144 C58.6689777,32.9209894 60.9927895,34.9733064 62.8367248,36.2777772 L47.0310258,36.2777772 C48.8768503,34.9733064 51.1968836,32.9209894 53.0049225,30.0678144 L53.0049225,30.0678144 Z M44.5749645,42.904262 L44.5749645,62.7837163 L5.4272368,62.7837163 C12.2361944,43.6521081 29.7819184,29.5963873 50.7585711,27.9094736 C50.9645024,28.3051694 51.2082192,28.6800391 51.512393,29.001897 C48.4272021,33.9982665 43.5207474,36.2247653 43.2184629,36.357295 C42.8689465,36.5125441 42.6667938,36.8571213 42.6667938,37.2263112 L42.6573474,37.2263112 C42.6573474,37.2528171 42.6686831,37.2736432 42.6686831,37.3001492 C42.6724616,37.3399081 42.6649045,37.379667 42.6724616,37.4175326 C42.6762402,37.4364654 42.6894651,37.4516117 42.6932437,37.4686512 C42.6989115,37.487584 42.6951329,37.5065168 42.7026901,37.5235564 L44.5749645,42.904262 L44.5749645,42.904262 Z M4.80377509,64.6769976 L44.4786113,64.6769976 C43.4678476,66.3222591 42.8330502,68.2496195 42.6875758,70.3568417 L39.853659,70.3568417 C39.3322183,70.3568417 38.90902,70.7790434 38.90902,71.3034824 L38.90902,86.3418162 C38.90902,87.9397457 37.5978611,89.2896553 36.0410961,89.2896553 L33.2411863,89.2896553 L33.2411863,86.4497332 C33.2411863,85.9252943 32.817988,85.5030926 32.2965473,85.5030926 L29.4626304,85.5030926 L29.4626304,80.7698892 C29.4626304,80.2454502 29.0394322,79.8232485 28.5179915,79.8232485 C27.9965508,79.8232485 27.5733525,80.2454502 27.5733525,80.7698892 L27.5733525,85.5030926 L24.7394356,85.5030926 C24.2179949,85.5030926 23.7947967,85.9252943 23.7947967,86.4497332 L23.7947967,96.8627807 L10.5698513,96.8627807 L10.5698513,86.4497332 C10.5698513,85.9252943 10.146653,85.5030926 9.62521233,85.5030926 L8.66545915,85.5030926 C8.69568759,85.3440569 8.71269109,85.1660885 8.71269109,84.9294283 C8.71269109,82.3034471 6.59292127,80.169719 3.98949631,80.169719 C3.44538427,80.169719 2.90694006,80.2852091 2.39116719,80.4915768 C2.39116719,80.4688574 2.38927791,80.4518179 2.38927791,80.4328851 C2.38927791,74.9461557 3.24134225,69.6544343 4.80377509,64.6769976 L4.80377509,64.6769976 Z M25.6821853,96.8627807 L25.6821853,87.3963739 L31.3500191,87.3963739 L31.3500191,96.8627807 L25.6821853,96.8627807 L25.6821853,96.8627807 Z M31.3500191,98.7560621 L31.3500191,104.435906 L27.5714632,104.435906 L27.5714632,98.7560621 L31.3500191,98.7560621 L31.3500191,98.7560621 Z M25.6821853,98.7560621 L25.6821853,104.435906 L21.9036295,104.435906 L21.9036295,98.7560621 L25.6821853,98.7560621 L25.6821853,98.7560621 Z M20.0143516,98.7560621 L20.0143516,104.435906 L16.2357957,104.435906 L16.2357957,98.7560621 L20.0143516,98.7560621 L20.0143516,98.7560621 Z M14.3465178,98.7560621 L14.3465178,104.435906 L10.567962,104.435906 L10.567962,98.7560621 L14.3465178,98.7560621 L14.3465178,98.7560621 Z M8.18369328,104.435906 C7.24283288,102.59753 6.39832565,100.708035 5.67284293,98.7560621 L8.68057337,98.7560621 L8.68057337,104.435906 L8.18369328,104.435906 L8.18369328,104.435906 Z M8.67868409,96.8627807 L5.01726349,96.8627807 C3.53229105,92.3321584 2.64055188,87.5364767 2.44406697,82.5628266 C2.91071862,82.2636882 3.49450549,82.0648936 3.98949631,82.0648936 C5.55192914,82.0648936 6.82341318,83.3485384 6.82341318,84.9313216 C6.82341318,85.1206497 6.81018823,85.1717683 6.74406351,85.4160016 C6.69494228,85.6091163 6.62692828,85.8590295 6.5475786,86.266085 C6.49278954,86.542504 6.56458211,86.8321761 6.74406351,87.0499034 C6.92354491,87.2676308 7.19182237,87.3982672 7.47521406,87.3982672 L8.68246265,87.3982672 L8.68246265,96.8627807 L8.67868409,96.8627807 Z M29.4607412,126.437729 L29.4607412,126.503994 C26.0638195,124.603139 22.8973897,122.340668 20.0143516,119.762019 L20.0143516,119.746873 L20.0143516,112.007138 L29.4607412,112.007138 L29.4607412,126.437729 L29.4607412,126.437729 Z M42.6856866,131.682118 C40.7548445,131.216371 38.8617881,130.654066 37.0178528,129.981952 L37.0178528,127.995899 C37.0178528,126.428262 38.2893368,125.155977 39.8517697,125.155977 C41.4142025,125.155977 42.6856866,126.428262 42.6856866,127.995899 L42.6856866,131.682118 L42.6856866,131.682118 Z M50.2427982,132.927897 L50.2427982,112.009032 L59.6891878,112.009032 L59.6891878,132.93547 C58.1437584,133.071787 56.5794363,133.153198 55,133.153198 C53.3960031,133.153198 51.8108989,133.071787 50.2427982,132.927897 L50.2427982,132.927897 Z M72.9141332,130.002778 C71.0701979,130.672999 69.1771415,131.233411 67.2462994,131.697264 L67.2462994,127.995899 C67.2462994,126.428262 68.5177835,125.155977 70.0802163,125.155977 C71.6426491,125.155977 72.9141332,126.428262 72.9141332,127.995899 L72.9141332,130.002778 L72.9141332,130.002778 Z M89.9176344,119.818817 C87.0345963,122.391787 83.8681665,124.648578 80.4712448,126.541859 L80.4712448,126.511567 L80.4712448,112.009032 L89.9176344,112.009032 L89.9176344,119.818817 L89.9176344,119.818817 Z M91.8069123,118.054279 L91.8069123,111.062391 C91.8069123,110.537952 91.3837141,110.11575 90.8622734,110.11575 L79.5266059,110.11575 C79.0051652,110.11575 78.5819669,110.537952 78.5819669,111.062391 L78.5819669,127.539619 C77.3501577,128.160615 76.0900094,128.738066 74.8034111,129.262505 L74.8034111,127.994006 C74.8034111,125.383171 72.6855306,123.260803 70.0802163,123.260803 C67.4767913,123.260803 65.3570215,125.383171 65.3570215,127.994006 L65.3570215,132.121359 C64.1138767,132.373166 62.851839,132.568174 61.5784657,132.72721 L61.5784657,111.062391 C61.5784657,110.537952 61.1552674,110.11575 60.6338267,110.11575 L49.2981593,110.11575 C48.7767185,110.11575 48.3535203,110.537952 48.3535203,111.062391 L48.3535203,132.719636 C47.080147,132.556814 45.8181093,132.361806 44.5749645,132.11 L44.5749645,127.994006 C44.5749645,125.383171 42.4570839,123.260803 39.8517697,123.260803 C37.2483447,123.260803 35.1285749,125.383171 35.1285749,127.994006 L35.1285749,129.235999 C33.8419766,128.707773 32.5837175,128.130322 31.3500191,127.50554 L31.3500191,111.060498 C31.3500191,110.536059 30.9268208,110.113857 30.4053801,110.113857 L19.0697126,110.113857 C18.5482719,110.113857 18.1250737,110.536059 18.1250737,111.060498 L18.1250737,117.989907 C14.6355774,114.547922 11.6297362,110.62315 9.2001248,106.327294 L100.796097,106.327294 C98.3551496,110.651549 95.3247478,114.597147 91.8069123,118.054279 L91.8069123,118.054279 Z M54.9338753,64.5690806 C51.2875689,64.5690806 48.3214026,67.5415323 48.3214026,71.1955653 C48.3214026,74.8495984 51.2875689,77.8220501 54.9338753,77.8220501 C58.5820709,77.8220501 61.546348,74.8495984 61.546348,71.1955653 C61.546348,67.5415323 58.5820709,64.5690806 54.9338753,64.5690806 L54.9338753,64.5690806 Z M54.9338753,75.9287687 C52.3304503,75.9287687 50.2106805,73.8064003 50.2106805,71.1955653 C50.2106805,68.5847303 52.3304503,66.4623619 54.9338753,66.4623619 C57.5391895,66.4623619 59.6570701,68.5847303 59.6570701,71.1955653 C59.6570701,73.8064003 57.5391895,75.9287687 54.9338753,75.9287687 L54.9338753,75.9287687 Z M73.8587721,110.11575 L66.3016605,110.11575 C65.7802198,110.11575 65.3570215,110.537952 65.3570215,111.062391 L65.3570215,118.635516 C65.3570215,119.156169 65.7802198,119.582157 66.3016605,119.582157 L73.8587721,119.582157 C74.3802128,119.582157 74.8034111,119.156169 74.8034111,118.635516 L74.8034111,111.062391 C74.8034111,110.537952 74.3821021,110.11575 73.8587721,110.11575 L73.8587721,110.11575 Z M72.9141332,117.688876 L67.2462994,117.688876 L67.2462994,112.009032 L72.9141332,112.009032 L72.9141332,117.688876 L72.9141332,117.688876 Z M43.6303255,110.11575 L36.0732139,110.11575 C35.5517731,110.11575 35.1285749,110.537952 35.1285749,111.062391 L35.1285749,118.635516 C35.1285749,119.156169 35.5517731,119.582157 36.0732139,119.582157 L43.6303255,119.582157 C44.1517662,119.582157 44.5749645,119.156169 44.5749645,118.635516 L44.5749645,111.062391 C44.5749645,110.537952 44.1536555,110.11575 43.6303255,110.11575 L43.6303255,110.11575 Z M42.6856866,117.688876 L37.0178528,117.688876 L37.0178528,112.009032 L42.6856866,112.009032 L42.6856866,117.688876 L42.6856866,117.688876 Z" id="Shape" fill="url(#linearGradient-1)" sketch:type="MSShapeGroup"/>
    </g>
</svg>