<?xml version="1.0" encoding="UTF-8" standalone="no"?>
<svg width="112px" height="130px" viewBox="0 0 112 130" version="1.1" xmlns="http://www.w3.org/2000/svg" xmlns:xlink="http://www.w3.org/1999/xlink" xmlns:sketch="http://www.bohemiancoding.com/sketch/ns">
    <!-- Generator: Sketch Beta 3.3.2 (12041) - http://www.bohemiancoding.com/sketch -->
    <title>Group Copy 4</title>
    <desc>Created with Sketch Beta.</desc>
    <defs>
        <linearGradient x1="50%" y1="3.38608099%" x2="50%" y2="100%" id="linearGradient-1">
            <stop stop-color="#41B060" offset="0%"/>
            <stop stop-color="#4CB452" offset="100%"/>
        </linearGradient>
        <linearGradient x1="50%" y1="0%" x2="50%" y2="97.9332749%" id="linearGradient-2">
            <stop stop-color="#01AF60" offset="0%"/>
            <stop stop-color="#65B44D" offset="100%"/>
        </linearGradient>
    </defs>
    <g id="Page-1" stroke="none" stroke-width="1" fill="none" fill-rule="evenodd" sketch:type="MSPage">
        <g id="Group-Copy-4" sketch:type="MSLayerGroup" transform="translate(1.000000, 0.000000)">
            <path d="M100.860632,43 C106.635025,51.6758566 110,62.0932019 110,73.2964792 C110,103.534069 85.4875901,128.046479 55.25,128.046479 C25.0124099,128.046479 0.5,103.534069 0.5,73.2964792 C0.5,62.0932019 3.86497494,51.6758566 9.63936808,43 L100.860632,43 Z" id="Shape" stroke="url(#linearGradient-1)" stroke-width="2" sketch:type="MSShapeGroup"/>
            <path d="M14.9809712,42.9882886 L13.9904856,43.9765772 L96.0095144,43.9765772 L95.0190288,42.9882886 L95.0190277,109 C95.0190277,109.545817 95.4624843,109 96.0095144,109 C96.5565445,109 97,108.557528 97,108.011711 L97,42.9882886 C97,42.4424719 96.5565445,42 96.0095144,42 L13.9904856,42 C13.4434555,42 13,42.4424719 13,42.9882886 L13,107.339091 C13,107.884908 14.4339411,109 14.9809712,109 C15.5280013,109 14.9809712,42.9882886 14.9809712,42.9882886 Z" id="Shape" fill="url(#linearGradient-2)" sketch:type="MSShapeGroup"/>
            <path d="M13.40625,48.8000611 L95.9135255,48.8000611 L95.9135255,46.8000611 L13.40625,46.8000611 L13.40625,48.8000611 L13.40625,48.8000611 Z" id="Shape" fill="url(#linearGradient-2)" sketch:type="MSShapeGroup"/>
            <path d="M13.40625,77.6970428 L95.9135255,77.6970428 L95.9135255,75.6970428 L13.40625,75.6970428 L13.40625,77.6970428 L13.40625,77.6970428 Z" id="Shape" fill="url(#linearGradient-2)" sketch:type="MSShapeGroup"/>
            <path d="M14,110.594024 L96.5072755,110.594024 L96.5072755,108.594024 L14,108.594024 L14,110.594024 L14,110.594024 Z" id="Shape" fill="url(#linearGradient-2)" sketch:type="MSShapeGroup"/>
            <path d="M13.40625,81.6970428 L95.9135255,81.6970428 L95.9135255,79.6970428 L13.40625,79.6970428 L13.40625,81.6970428 L13.40625,81.6970428 Z" id="Shape" fill="url(#linearGradient-2)" sketch:type="MSShapeGroup"/>
            <path d="M5.06510159,44 L103.934842,44 C104.839603,44 105.33083,43.0046144 104.746869,42.3545687 L88.5767616,24.3545687 C88.3747644,24.1297125 88.0776992,24 87.7647345,24 L20.2187293,24 C19.8939204,24 19.5869322,24.1396703 19.3852877,24.3791905 L4.23166005,42.3791905 C3.67977589,43.0347375 4.17612657,44 5.06510159,44 L5.06510159,44 Z M5.06510159,42 L5.89854314,43.6208095 L21.0521708,25.6208095 L20.2187293,26 L87.7647345,26 L86.9527074,25.6454313 L103.122814,43.6454313 L103.934842,42 L5.06510159,42 L5.06510159,42 Z" id="Shape" fill="url(#linearGradient-2)" sketch:type="MSShapeGroup"/>
            <path d="M31.9657487,26 L76.5342513,26 C77.2951225,26 77.692548,25.0951013 77.1777429,24.5348328 L54.8934916,0.282617203 C54.5472463,-0.0942057344 53.9527537,-0.0942057344 53.6065084,0.282617203 L31.3222571,24.5348328 C30.807452,25.0951013 31.2048775,26 31.9657487,26 L31.9657487,26 Z M31.9657487,24.2522156 L32.6092403,25.7173828 L54.8934916,1.46516721 L53.6065084,1.46516721 L75.8907597,25.7173828 L76.5342513,24.2522156 L31.9657487,24.2522156 L31.9657487,24.2522156 Z" id="Shape" fill="url(#linearGradient-2)" sketch:type="MSShapeGroup"/>
            <path d="M24,54.9999602 L24,54.9999602 L24,70.0000398 C24,69.4453005 23.5568458,69 22.9999602,69 L38.0000398,69 C37.4453005,69 37,69.4431542 37,70.0000398 L37,54.9999602 C37,55.5546995 37.4431542,56 38.0000398,56 L22.9999602,56 C23.5546995,56 24,55.5568458 24,54.9999602 L24,54.9999602 Z M22,54.9999602 C22,54.4476974 22.4547089,54 22.9999602,54 L38.0000398,54 C38.5523026,54 39,54.4547089 39,54.9999602 L39,70.0000398 C39,70.5523026 38.5452911,71 38.0000398,71 L22.9999602,71 C22.4476974,71 22,70.5452911 22,70.0000398 L22,54.9999602 L22,54.9999602 Z" id="Shape" fill="url(#linearGradient-2)" sketch:type="MSShapeGroup"/>
            <path d="M24,87.3940458 L24,87.3940458 L24,102.394125 C24,101.839386 23.5568458,101.394086 22.9999602,101.394086 L38.0000398,101.394086 C37.4453005,101.394086 37,101.83724 37,102.394125 L37,87.3940458 C37,87.9487851 37.4431542,88.3940856 38.0000398,88.3940856 L22.9999602,88.3940856 C23.5546995,88.3940856 24,87.9509314 24,87.3940458 L24,87.3940458 Z M22,87.3940458 C22,86.841783 22.4547089,86.3940856 22.9999602,86.3940856 L38.0000398,86.3940856 C38.5523026,86.3940856 39,86.8487945 39,87.3940458 L39,102.394125 C39,102.946388 38.5452911,103.394086 38.0000398,103.394086 L22.9999602,103.394086 C22.4476974,103.394086 22,102.939377 22,102.394125 L22,87.3940458 L22,87.3940458 Z" id="Shape" fill="url(#linearGradient-2)" sketch:type="MSShapeGroup"/>
            <path d="M49,54.9999602 L49,54.9999602 L49,70.0000398 C49,69.4453005 48.5568458,69 47.9999602,69 L63.0000398,69 C62.4453005,69 62,69.4431542 62,70.0000398 L62,54.9999602 C62,55.5546995 62.4431542,56 63.0000398,56 L47.9999602,56 C48.5546995,56 49,55.5568458 49,54.9999602 L49,54.9999602 Z M47,54.9999602 C47,54.4476974 47.4547089,54 47.9999602,54 L63.0000398,54 C63.5523026,54 64,54.4547089 64,54.9999602 L64,70.0000398 C64,70.5523026 63.5452911,71 63.0000398,71 L47.9999602,71 C47.4476974,71 47,70.5452911 47,70.0000398 L47,54.9999602 L47,54.9999602 Z" id="Shape" fill="url(#linearGradient-2)" sketch:type="MSShapeGroup"/>
            <path d="M49,87.3940458 L49,87.3940458 L49,102.394125 C49,101.839386 48.5568458,101.394086 47.9999602,101.394086 L63.0000398,101.394086 C62.4453005,101.394086 62,101.83724 62,102.394125 L62,87.3940458 C62,87.9487851 62.4431542,88.3940856 63.0000398,88.3940856 L47.9999602,88.3940856 C48.5546995,88.3940856 49,87.9509314 49,87.3940458 L49,87.3940458 Z M47,87.3940458 C47,86.841783 47.4547089,86.3940856 47.9999602,86.3940856 L63.0000398,86.3940856 C63.5523026,86.3940856 64,86.8487945 64,87.3940458 L64,102.394125 C64,102.946388 63.5452911,103.394086 63.0000398,103.394086 L47.9999602,103.394086 C47.4476974,103.394086 47,102.939377 47,102.394125 L47,87.3940458 L47,87.3940458 Z" id="Shape" fill="url(#linearGradient-2)" sketch:type="MSShapeGroup"/>
            <path d="M49,115.947287 L49,115.947287 L49,126.229714 C49,125.767517 48.6786031,125.405587 48.2146795,125.355483 C48.3794558,125.374159 48.6825663,125.407312 49.0920596,125.450104 C49.776001,125.521575 50.5028322,125.593064 51.2403087,125.659724 C51.8615378,125.715877 52.4629644,125.76607 53.0341625,125.808774 C54.3414645,125.906511 55.4293593,125.960449 56.2070312,125.960449 C56.8270598,125.960449 57.7340678,125.906147 58.8366487,125.807947 C59.2832606,125.76817 59.7531613,125.721991 60.2387005,125.67068 C60.8502662,125.60605 61.4549658,125.536709 62.0251944,125.46739 C62.3664036,125.425911 62.6190966,125.393814 62.7718597,125.373798 C62.3027598,125.431651 62,125.777854 62,126.229714 L62,115.947287 C62,116.49404 62.4438646,116.941162 63.0000398,116.941162 L47.9999602,116.941162 C48.5574458,116.941162 49,116.498026 49,115.947287 L49,115.947287 Z M47,115.947287 C47,115.39162 47.4547089,114.941162 47.9999602,114.941162 L63.0000398,114.941162 C63.5523026,114.941162 64,115.393317 64,115.947287 L64,126.229714 C64,126.785382 63.5523155,127.292698 63.0166613,127.35876 C63.0166613,127.35876 58.4391409,127.960449 56.2070312,127.960449 C53.4391143,127.960449 47.989433,127.342758 47.989433,127.342758 C47.4429843,127.283709 47,126.783684 47,126.229714 L47,115.947287 L47,115.947287 Z" id="Shape" fill="url(#linearGradient-2)" sketch:type="MSShapeGroup"/>
            <path d="M74,54.9999602 L74,54.9999602 L74,70.0000398 C74,69.4453005 73.5568458,69 72.9999602,69 L88.0000398,69 C87.4453005,69 87,69.4431542 87,70.0000398 L87,54.9999602 C87,55.5546995 87.4431542,56 88.0000398,56 L72.9999602,56 C73.5546995,56 74,55.5568458 74,54.9999602 L74,54.9999602 Z M72,54.9999602 C72,54.4476974 72.4547089,54 72.9999602,54 L88.0000398,54 C88.5523026,54 89,54.4547089 89,54.9999602 L89,70.0000398 C89,70.5523026 88.5452911,71 88.0000398,71 L72.9999602,71 C72.4476974,71 72,70.5452911 72,70.0000398 L72,54.9999602 L72,54.9999602 Z" id="Shape" fill="url(#linearGradient-2)" sketch:type="MSShapeGroup"/>
            <path d="M74,87.3940458 L74,87.3940458 L74,102.394125 C74,101.839386 73.5568458,101.394086 72.9999602,101.394086 L88.0000398,101.394086 C87.4453005,101.394086 87,101.83724 87,102.394125 L87,87.3940458 C87,87.9487851 87.4431542,88.3940856 88.0000398,88.3940856 L72.9999602,88.3940856 C73.5546995,88.3940856 74,87.9509314 74,87.3940458 L74,87.3940458 Z M72,87.3940458 C72,86.841783 72.4547089,86.3940856 72.9999602,86.3940856 L88.0000398,86.3940856 C88.5523026,86.3940856 89,86.8487945 89,87.3940458 L89,102.394125 C89,102.946388 88.5452911,103.394086 88.0000398,103.394086 L72.9999602,103.394086 C72.4476974,103.394086 72,102.939377 72,102.394125 L72,87.3940458 L72,87.3940458 Z" id="Shape" fill="url(#linearGradient-2)" sketch:type="MSShapeGroup"/>
            <path d="M20.5,71 L40,71 C40.5522847,71 41,70.5522847 41,70 C41,69.4477153 40.5522847,69 40,69 L20.5,69 C19.9477153,69 19.5,69.4477153 19.5,70 C19.5,70.5522847 19.9477153,71 20.5,71 L20.5,71 Z" id="Shape" fill="url(#linearGradient-2)" sketch:type="MSShapeGroup"/>
            <path d="M20.5,103.394086 L40,103.394086 C40.5522847,103.394086 41,102.94637 41,102.394086 C41,101.841801 40.5522847,101.394086 40,101.394086 L20.5,101.394086 C19.9477153,101.394086 19.5,101.841801 19.5,102.394086 C19.5,102.94637 19.9477153,103.394086 20.5,103.394086 L20.5,103.394086 Z" id="Shape" fill="url(#linearGradient-2)" sketch:type="MSShapeGroup"/>
            <path d="M45.5,71 L65,71 C65.5522847,71 66,70.5522847 66,70 C66,69.4477153 65.5522847,69 65,69 L45.5,69 C44.9477153,69 44.5,69.4477153 44.5,70 C44.5,70.5522847 44.9477153,71 45.5,71 L45.5,71 Z" id="Shape" fill="url(#linearGradient-2)" sketch:type="MSShapeGroup"/>
            <path d="M45.5,103.394086 L65,103.394086 C65.5522847,103.394086 66,102.94637 66,102.394086 C66,101.841801 65.5522847,101.394086 65,101.394086 L45.5,101.394086 C44.9477153,101.394086 44.5,101.841801 44.5,102.394086 C44.5,102.94637 44.9477153,103.394086 45.5,103.394086 L45.5,103.394086 Z" id="Shape" fill="url(#linearGradient-2)" sketch:type="MSShapeGroup"/>
            <path d="M70.5,71 L90,71 C90.5522847,71 91,70.5522847 91,70 C91,69.4477153 90.5522847,69 90,69 L70.5,69 C69.9477153,69 69.5,69.4477153 69.5,70 C69.5,70.5522847 69.9477153,71 70.5,71 L70.5,71 Z" id="Shape" fill="url(#linearGradient-2)" sketch:type="MSShapeGroup"/>
            <path d="M70.5,103.394086 L90,103.394086 C90.5522847,103.394086 91,102.94637 91,102.394086 C91,101.841801 90.5522847,101.394086 90,101.394086 L70.5,101.394086 C69.9477153,101.394086 69.5,101.841801 69.5,102.394086 C69.5,102.94637 69.9477153,103.394086 70.5,103.394086 L70.5,103.394086 Z" id="Shape" fill="url(#linearGradient-2)" sketch:type="MSShapeGroup"/>
            <path d="M23.5,62 L37.5356684,62 L38.5356684,62 L38.5356684,60 L37.5356684,60 L23.5,60 L22.5,60 L22.5,62 L23.5,62 L23.5,62 Z" id="Shape" fill="url(#linearGradient-2)" sketch:type="MSShapeGroup"/>
            <path d="M23.5,94.3940856 L37.5356684,94.3940856 L38.5356684,94.3940856 L38.5356684,92.3940856 L37.5356684,92.3940856 L23.5,92.3940856 L22.5,92.3940856 L22.5,94.3940856 L23.5,94.3940856 L23.5,94.3940856 Z" id="Shape" fill="url(#linearGradient-2)" sketch:type="MSShapeGroup"/>
            <path d="M48.5,62 L62.5356684,62 L63.5356684,62 L63.5356684,60 L62.5356684,60 L48.5,60 L47.5,60 L47.5,62 L48.5,62 L48.5,62 Z" id="Shape" fill="url(#linearGradient-2)" sketch:type="MSShapeGroup"/>
            <path d="M48.5,94.3940856 L62.5356684,94.3940856 L63.5356684,94.3940856 L63.5356684,92.3940856 L62.5356684,92.3940856 L48.5,92.3940856 L47.5,92.3940856 L47.5,94.3940856 L48.5,94.3940856 L48.5,94.3940856 Z" id="Shape" fill="url(#linearGradient-2)" sketch:type="MSShapeGroup"/>
            <path d="M48.5,124.394086 L62.5356684,124.394086 L63.5356684,124.394086 L63.5356684,122.394086 L62.5356684,122.394086 L48.5,122.394086 L47.5,122.394086 L47.5,124.394086 L48.5,124.394086 L48.5,124.394086 Z" id="Shape" fill="url(#linearGradient-2)" sketch:type="MSShapeGroup"/>
            <path d="M73.5,62 L87.5356684,62 L88.5356684,62 L88.5356684,60 L87.5356684,60 L73.5,60 L72.5,60 L72.5,62 L73.5,62 L73.5,62 Z" id="Shape" fill="url(#linearGradient-2)" sketch:type="MSShapeGroup"/>
            <path d="M73.5,94.3940856 L87.5356684,94.3940856 L88.5356684,94.3940856 L88.5356684,92.3940856 L87.5356684,92.3940856 L73.5,92.3940856 L72.5,92.3940856 L72.5,94.3940856 L73.5,94.3940856 L73.5,94.3940856 Z" id="Shape" fill="url(#linearGradient-2)" sketch:type="MSShapeGroup"/>
            <path d="M54,21 C56.7614237,21 59,18.7614237 59,16 C59,13.2385763 56.7614237,11 54,11 C51.2385763,11 49,13.2385763 49,16 C49,18.7614237 51.2385763,21 54,21 L54,21 Z M54,19.3333333 C52.1590508,19.3333333 50.6666667,17.8409492 50.6666667,16 C50.6666667,14.1590508 52.1590508,12.6666667 54,12.6666667 C55.8409492,12.6666667 57.3333333,14.1590508 57.3333333,16 C57.3333333,17.8409492 55.8409492,19.3333333 54,19.3333333 L54,19.3333333 Z" id="Shape" fill="url(#linearGradient-2)" sketch:type="MSShapeGroup"/>
            <path d="M39.0791016,123.558838 L39.0791016,115.95658 C39.0791016,115.404296 38.6313863,114.95658 38.0791016,114.95658 L22.6071777,114.95658 C22.054893,114.95658 21.6071777,115.404296 21.6071777,115.95658 C21.6071777,116.508865 22.054893,116.95658 22.6071777,116.95658 L38.0791016,116.95658 L37.0791016,115.95658 L37.0791016,123.558838 C37.0791016,124.111122 37.5268168,124.558838 38.0791016,124.558838 C38.6313863,124.558838 39.0791016,124.111122 39.0791016,123.558838 L39.0791016,123.558838 Z" id="Shape" fill="url(#linearGradient-2)" sketch:type="MSShapeGroup"/>
            <path d="M74,123.558838 L74,115.95658 L73,116.95658 L87.7414551,116.95658 C88.2937398,116.95658 88.7414551,116.508865 88.7414551,115.95658 C88.7414551,115.404296 88.2937398,114.95658 87.7414551,114.95658 L73,114.95658 C72.4477153,114.95658 72,115.404296 72,115.95658 L72,123.558838 C72,124.111122 72.4477153,124.558838 73,124.558838 C73.5522847,124.558838 74,124.111122 74,123.558838 L74,123.558838 Z" id="Shape" fill="url(#linearGradient-2)" sketch:type="MSShapeGroup"/>
            <path d="M33.484375,29.6145143 L33.484375,33.0598268 L37.7324219,33.0598268 L37.7324219,29.6145143 L39.3144531,29.6145143 L39.3144531,37.8000611 L37.7324219,37.8000611 L37.7324219,34.3430299 L33.484375,34.3430299 L33.484375,37.8000611 L31.9023437,37.8000611 L31.9023437,29.6145143 L33.484375,29.6145143 Z M45.9144531,29.5090455 C46.7621136,29.5090455 47.5248013,29.6838485 48.202539,30.0334596 C48.8802768,30.3830707 49.4203105,30.8869719 49.8226562,31.5451783 C50.225002,32.2033848 50.4261718,32.9250572 50.4261718,33.7102174 C50.4261718,34.4758462 50.2298847,35.1858001 49.8373047,35.8401002 C49.4447246,36.4944004 48.9056675,37.0022078 48.2201172,37.3635377 C47.5345668,37.7248676 46.7621136,37.9055299 45.9027343,37.9055299 C45.0550739,37.9055299 44.2845737,37.721938 43.5912109,37.3547486 C42.8978481,36.9875593 42.3578144,36.4826815 41.9710937,35.8401002 C41.584373,35.1975189 41.3910156,34.487565 41.3910156,33.7102174 C41.3910156,32.9602136 41.584373,32.2551426 41.9710937,31.594983 C42.3578144,30.9348235 42.8910122,30.4221333 43.5707031,30.0568971 C44.250394,29.6916609 45.0316362,29.5090455 45.9144531,29.5090455 L45.9144531,29.5090455 Z M43.0257812,33.7102174 C43.0257812,34.2531889 43.1488269,34.7414652 43.3949218,35.1750611 C43.6410168,35.6086571 43.9837868,35.9445912 44.4232422,36.1828736 C44.8626975,36.4211561 45.3597628,36.5402955 45.9144531,36.5402955 C46.754301,36.5402955 47.4447238,36.2766263 47.9857422,35.7492799 C48.5267605,35.2219335 48.7972656,34.5422528 48.7972656,33.7102174 C48.7972656,33.1672459 48.6751965,32.677993 48.4310547,32.242444 C48.1869128,31.8068949 47.8431662,31.4699842 47.3998047,31.2317018 C46.9564431,30.9934193 46.4574246,30.8742799 45.9027343,30.8742799 C45.3480441,30.8742799 44.8490256,30.9943959 44.405664,31.2346315 C43.9623024,31.474867 43.6214855,31.8108012 43.3832031,32.242444 C43.1449206,32.6740867 43.0257812,33.1633397 43.0257812,33.7102174 L43.0257812,33.7102174 Z M54.8816406,29.5090455 C55.6785195,29.5090455 56.44609,29.7082623 57.1843749,30.1067018 L57.1843749,31.5129518 C56.3367144,31.0012305 55.5847688,30.7453736 54.9285156,30.7453736 C54.5300761,30.7453736 54.2185557,30.8225213 53.9939452,30.976819 C53.7693347,31.1311166 53.6570312,31.3371692 53.6570312,31.594983 C53.6570312,31.9035783 53.8660135,32.1887317 54.2839843,32.4504518 C54.4011724,32.5285772 54.8523398,32.747325 55.6374999,33.1067018 C56.3093783,33.4231096 56.7937484,33.7746686 57.0906249,34.1613893 C57.3875014,34.54811 57.5359374,35.0129491 57.5359374,35.5559205 C57.5359374,36.259049 57.2830103,36.8264262 56.7771484,37.258069 C56.2712865,37.6897117 55.6160196,37.9055299 54.8113281,37.9055299 C54.2878879,37.9055299 53.8376971,37.8479133 53.4607421,37.7326783 C53.0837871,37.6174434 52.6609398,37.4192032 52.1921874,37.1379518 L52.1921874,35.579358 C53.0671918,36.3059242 53.8914023,36.6692018 54.6648437,36.6692018 C55.0515644,36.6692018 55.3640612,36.5852182 55.6023437,36.4172486 C55.8406261,36.2492791 55.9597656,36.026625 55.9597656,35.7492799 C55.9597656,35.3703718 55.7527364,35.0617811 55.3386718,34.8234986 C54.9949201,34.6359977 54.5515651,34.4113906 54.0085937,34.1496705 C53.3640592,33.8567003 52.8826187,33.5149069 52.5642577,33.1242799 C52.2458968,32.7336529 52.0867187,32.2805325 52.0867187,31.7649049 C52.0867187,31.0774015 52.3425755,30.5295554 52.8542968,30.1213502 C53.3660181,29.713145 54.0417926,29.5090455 54.8816406,29.5090455 L54.8816406,29.5090455 Z M66.0695311,29.6145143 L66.0695311,30.8508424 L63.1632811,30.8508424 L63.1632811,37.8000611 L61.5812499,37.8000611 L61.5812499,30.8508424 L58.6749999,30.8508424 L58.6749999,29.6145143 L66.0695311,29.6145143 Z M73.1617186,29.6145143 L73.1617186,30.8508424 L69.4527342,30.8508424 L69.4527342,33.001233 L73.0035155,33.001233 L73.0035155,34.2375611 L69.4527342,34.2375611 L69.4527342,36.563733 L73.2437499,36.563733 L73.2437499,37.8000611 L67.870703,37.8000611 L67.870703,29.6145143 L73.1617186,29.6145143 Z M76.9023436,29.6145143 L76.9023436,36.563733 L80.8749998,36.563733 L80.8749998,37.8000611 L75.3203123,37.8000611 L75.3203123,29.6145143 L76.9023436,29.6145143 Z" id="HOSTEL" fill="url(#linearGradient-2)" sketch:type="MSShapeGroup"/>
        </g>
    </g>
</svg>