<?xml version="1.0" encoding="UTF-8" standalone="no"?>
<svg width="110px" height="140px" viewBox="0 0 110 140" version="1.1" xmlns="http://www.w3.org/2000/svg" xmlns:xlink="http://www.w3.org/1999/xlink" xmlns:sketch="http://www.bohemiancoding.com/sketch/ns">
    <!-- Generator: Sketch Beta 3.3.2 (12041) - http://www.bohemiancoding.com/sketch -->
    <title>Shape + Group</title>
    <desc>Created with Sketch Beta.</desc>
    <defs>
        <linearGradient x1="50%" y1="0%" x2="50%" y2="97.9332749%" id="linearGradient-1">
            <stop stop-color="#01AF60" offset="0%"/>
            <stop stop-color="#65B44D" offset="100%"/>
        </linearGradient>
    </defs>
    <g id="Page-1" stroke="none" stroke-width="1" fill="none" fill-rule="evenodd" sketch:type="MSPage">
        <g id="Shape-+-Group" sketch:type="MSLayerGroup" fill="url(#linearGradient-1)">
            <path d="M54.7610482,47.7456318 C52.1556888,47.7456318 50.0377716,45.6232266 50.0377716,43.0123464 C50.0377716,40.4014661 52.1556888,38.2790609 54.7610482,38.2790609 C57.3645183,38.2790609 59.4843249,40.4014661 59.4843249,43.0123464 C59.4843249,45.6232266 57.3645183,47.7456318 54.7610482,47.7456318 L54.7610482,47.7456318 Z M54.7610482,40.1723751 C53.1985883,40.1723751 51.9270822,41.4446822 51.9270822,43.0123464 C51.9270822,44.5762239 53.1985883,45.8523176 54.7610482,45.8523176 C56.3235082,45.8523176 57.5950142,44.5762239 57.5950142,43.0123464 C57.5950142,41.4446822 56.3235082,40.1723751 54.7610482,40.1723751 L54.7610482,40.1723751 Z M65.1843752,24.1795503 C65.1843752,23.6588889 64.8310741,23.2404664 64.307735,23.2404664 L63.2761714,23.2404664 C63.0211144,20.4004952 61.4057538,18.3992621 59.5164432,17.0171427 C59.5164432,17.0171427 57.6796879,15.898683 54.8252834,15.8916015 C51.970879,15.8845201 50.0698899,16.9754898 50.0698899,16.9754898 C48.1805792,18.3557159 46.6181193,20.4004952 46.361173,23.2404664 L45.393846,23.2404664 C44.8723962,23.2404664 44.4019579,23.6588889 44.4019579,24.1795503 L44.4019579,30.8534827 C19.3251375,35.7458066 0.326229452,57.8956891 0.326229452,84.4361672 C0.326229452,114.551223 24.7739094,139.050708 54.8252848,139.050708 C84.8766602,139.050708 109.326229,114.553116 109.326229,84.4361672 C109.326229,57.8748627 90.2933138,35.706047 65.1843752,30.8440162 L65.1843752,24.1795503 Z M65.1843752,32.7695167 C84.0699245,36.5675049 99.3336654,50.5155505 105.028048,68.6800067 L97.3026564,68.6800067 L97.3026564,65.8173156 C97.3026564,65.2966542 96.9852522,64.8933783 96.4638025,64.8933783 L93.5240351,64.8933783 L93.5240351,58.2478455 C93.5240351,57.7271841 93.1008295,57.3011885 92.5793797,57.3011885 C92.05793,57.3011885 91.6347244,57.7271841 91.6347244,58.2478455 L91.6347244,64.8933783 L88.8971133,64.8933783 C88.3756635,64.8933783 87.8561031,65.2966542 87.8561031,65.8173156 L87.8561031,68.6800067 L72.7416178,68.6800067 L72.7416178,61.10675 L73.7656242,61.10675 C74.2870739,61.10675 74.6309285,60.6637144 74.6309285,60.1411597 L74.6309285,52.5716896 C74.6309285,52.0472416 74.2870739,51.6401791 73.7656242,51.6401791 L68.9629965,51.6401791 L68.9629965,35.5356487 C68.9629965,35.0149873 68.613474,34.6003515 68.0920243,34.6003515 L65.1843752,34.6003515 L65.1843752,32.7695167 L65.1843752,32.7695167 Z M95.4133457,66.7866925 L95.4133457,72.466635 L89.7454138,72.466635 L89.7454138,66.7866925 L95.4133457,66.7866925 L95.4133457,66.7866925 Z M61.4057538,102.759662 L61.4057538,98.9730335 L68.9629965,98.9730335 L68.9629965,102.759662 L61.4057538,102.759662 L61.4057538,102.759662 Z M68.9629965,104.652976 L68.9629965,114.119547 L61.4057538,114.119547 L61.4057538,104.652976 L68.9629965,104.652976 L68.9629965,104.652976 Z M59.5164432,97.0797193 L59.5164432,91.3997768 L70.8523071,91.3997768 L70.8523071,97.0797193 L59.5164432,97.0797193 L59.5164432,97.0797193 Z M17.6738799,89.5064626 L16.4118204,85.7198342 L93.225524,85.7198342 L91.9653538,89.5064626 L17.6738799,89.5064626 L17.6738799,89.5064626 Z M58.5717878,104.652976 L59.5164432,104.652976 L59.5164432,114.119547 L50.0698899,114.119547 L50.0698899,104.652976 L51.0145452,104.652976 C51.5359949,104.652976 51.9592005,104.22698 51.9592005,103.706319 C51.9592005,103.181871 51.5359949,102.759662 51.0145452,102.759662 L50.0698899,102.759662 L50.0698899,98.9730335 L51.0693352,98.9730335 C51.5907849,98.9730335 51.9592005,98.5186381 51.9592005,97.9960834 L51.9592005,91.3997768 L57.6271325,91.3997768 L57.6271325,97.9960834 C57.6271325,98.5167448 58.1126853,98.9730335 58.6341351,98.9730335 L59.5164432,98.9730335 L59.5164432,102.759662 L58.5717878,102.759662 C58.0503381,102.759662 57.6271325,103.181871 57.6271325,103.706319 C57.6271325,104.22698 58.0503381,104.652976 58.5717878,104.652976 L58.5717878,104.652976 Z M40.6233366,102.759662 L40.6233366,98.9730335 L48.1805792,98.9730335 L48.1805792,102.759662 L40.6233366,102.759662 L40.6233366,102.759662 Z M48.1805792,104.652976 L48.1805792,114.119547 L40.6233366,114.119547 L40.6233366,104.652976 L48.1805792,104.652976 L48.1805792,104.652976 Z M38.7340259,97.0797193 L38.7340259,91.3997768 L50.0698899,91.3997768 L50.0698899,97.0797193 L38.7340259,97.0797193 L38.7340259,97.0797193 Z M19.9920641,83.8265201 L54.8215062,59.4311669 L89.6471696,83.8265201 L19.9920641,83.8265201 L19.9920641,83.8265201 Z M42.5126472,59.2134358 L36.8447152,59.2134358 L36.8447152,53.5334932 L42.5126472,53.5334932 L42.5126472,59.2134358 L42.5126472,59.2134358 Z M43.5045353,61.10675 C44.0259851,61.10675 44.4038472,60.6637144 44.4038472,60.1411597 L44.4038472,53.5334932 L50.0717792,53.5334932 L50.0717792,60.3816106 L38.7359152,68.3316368 L38.7359152,62.0344739 L38.7359152,61.10675 L43.5045353,61.10675 L43.5045353,61.10675 Z M51.9592005,59.058184 L51.9592005,53.5334932 L57.6271325,53.5334932 L57.6271325,59.1055169 L55.3297307,57.4715867 C55.00288,57.2462823 54.558892,57.2462823 54.2339306,57.4715867 L51.9592005,59.058184 L51.9592005,59.058184 Z M66.2027136,61.10675 L70.8541964,61.10675 L70.8541964,62.0344739 L70.8541964,68.3770764 L59.5183325,60.4308368 L59.5183325,53.5334932 L65.1862645,53.5334932 L65.1862645,60.1411597 C65.1843752,60.6637144 65.6793745,61.10675 66.2027136,61.10675 L66.2027136,61.10675 Z M67.0736858,59.2134358 L67.0736858,53.5334932 L72.7416178,53.5334932 L72.7416178,59.2134358 L67.0736858,59.2134358 L67.0736858,59.2134358 Z M54.8196169,17.452605 C58.1844792,17.452605 60.9655444,20.4004952 61.3811928,23.2404664 L48.2599302,23.2404664 C48.6718,20.4004952 51.4547546,17.452605 54.8196169,17.452605 L54.8196169,17.452605 Z M46.2912685,27.0195215 L46.2912685,25.1337806 L63.2950645,25.1337806 L63.2950645,27.0195215 L63.2950645,33.886572 L55.2711621,29.0453677 C54.9707617,28.8673962 54.5910103,28.8673962 54.2887206,29.0453677 L46.2912685,33.8449191 L46.2912685,27.0195215 L46.2912685,27.0195215 Z M45.3617277,36.4936657 C45.533655,36.4936657 45.7018036,36.4425462 45.8491698,36.3535604 L54.8196169,30.9651883 L63.7900639,36.3535604 C63.9374301,36.4425462 64.1055788,36.4936657 64.2756167,36.4936657 L67.0736858,36.4936657 L67.0736858,51.6401791 L42.5126472,51.6401791 L42.5126472,36.4936657 L45.3617277,36.4936657 L45.3617277,36.4936657 Z M44.4019579,32.7846632 L44.4019579,34.6003515 L41.611446,34.6003515 C41.0899963,34.6003515 40.6233366,35.0149873 40.6233366,35.5356487 L40.6233366,51.6401791 L35.9397354,51.6401791 C35.4182857,51.6401791 34.9554046,52.0472416 34.9554046,52.5716896 L34.9554046,60.1411597 C34.9554046,60.6618211 35.4163964,61.10675 35.9397354,61.10675 L36.8447152,61.10675 L36.8447152,68.6800067 L21.7302299,68.6800067 L21.7302299,65.8173156 C21.7302299,65.2966542 21.3296961,64.8933783 20.8082463,64.8933783 L17.9516086,64.8933783 L17.9516086,58.2478455 C17.9516086,57.7271841 17.528403,57.3011885 17.0069533,57.3011885 C16.4855035,57.3011885 16.062298,57.7271841 16.062298,58.2478455 L16.062298,64.8933783 L13.2415571,64.8933783 C12.7201074,64.8933783 12.2836766,65.2966542 12.2836766,65.8173156 L12.2836766,68.6800067 L4.62441121,68.6800067 C10.3112363,50.5344836 25.5466375,36.6015846 44.4019579,32.7846632 L44.4019579,32.7846632 Z M19.8409193,66.7866925 L19.8409193,72.466635 L14.1729873,72.466635 L14.1729873,66.7866925 L19.8409193,66.7866925 L19.8409193,66.7866925 Z M2.21554011,84.4361672 C2.21554011,79.6404024 2.86168436,74.9923161 4.06517525,70.5733208 L4.10296146,70.5733208 L12.2855659,70.5733208 L12.2855659,73.3905723 C12.2855659,73.9112337 12.7201074,74.3599492 13.2434464,74.3599492 L20.8101356,74.3599492 C21.3315854,74.3599492 21.7321192,73.913127 21.7321192,73.3905723 L21.7321192,70.5733208 L35.6091061,70.5733208 L16.695217,83.8265201 L15.1006388,83.8265201 C14.7983491,83.8265201 14.5111739,83.9590521 14.335468,84.2070762 C14.1559835,84.4513137 14.1087507,84.7769638 14.2051056,85.0647475 L15.6806572,89.5064626 L2.46492912,89.5064626 C2.30433771,87.8346662 2.21554011,86.1458299 2.21554011,84.4361672 L2.21554011,84.4361672 Z M17.9516086,102.759662 L17.0069533,102.759662 C16.4855035,102.759662 16.062298,103.181871 16.062298,103.706319 C16.062298,104.22698 16.4855035,104.652976 17.0069533,104.652976 L17.9516086,104.652976 L17.9516086,121.995734 C9.80679035,113.964295 4.26355287,103.303043 2.68786778,91.3997768 L16.062298,91.3997768 L16.062298,97.9960834 C16.062298,98.5167448 16.500618,98.9730335 17.0239571,98.9730335 L17.9516086,98.9730335 L17.9516086,102.759662 L17.9516086,102.759662 Z M17.9516086,91.3997768 L29.2874726,91.3997768 L29.2874726,97.0797193 L17.9516086,97.0797193 L17.9516086,91.3997768 L17.9516086,91.3997768 Z M27.3981619,129.406166 C24.7096729,127.753302 22.1817752,125.863775 19.8409193,123.765983 L19.8409193,123.745156 L19.8409193,104.652976 L27.3981619,104.652976 L27.3981619,129.406166 L27.3981619,129.406166 Z M27.3981619,102.759662 L19.8409193,102.759662 L19.8409193,98.9730335 L27.3981619,98.9730335 L27.3981619,102.759662 L27.3981619,102.759662 Z M34.9554046,115.066204 L34.9554046,119.799489 L34.0107492,119.799489 C33.4892995,119.799489 33.0660939,120.221698 33.0660939,120.746146 C33.0660939,121.266808 33.4892995,121.692804 34.0107492,121.692804 L34.9554046,121.692804 L34.9554046,133.24202 C33.005636,132.443041 31.1125467,131.530464 29.2874726,130.509968 L29.2874726,104.652976 L30.2321279,104.652976 C30.7535777,104.652976 31.1767832,104.22698 31.1767832,103.706319 C31.1767832,103.181871 30.7535777,102.759662 30.2321279,102.759662 L29.2874726,102.759662 L29.2874726,98.9730335 L30.2642462,98.9730335 C30.7856959,98.9730335 31.1767832,98.5186381 31.1767832,97.9960834 L31.1767832,91.3997768 L36.8447152,91.3997768 L36.8447152,97.9960834 C36.8447152,98.5167448 37.3075963,98.9730335 37.8290461,98.9730335 L38.7340259,98.9730335 L38.7340259,102.759662 L37.7893706,102.759662 C37.2679208,102.759662 36.8447152,103.181871 36.8447152,103.706319 C36.8447152,104.22698 37.2679208,104.652976 37.7893706,104.652976 L38.7340259,104.652976 L38.7340259,114.119547 L35.9000599,114.119547 C35.3786102,114.119547 34.9554046,114.541756 34.9554046,115.066204 L34.9554046,115.066204 Z M50.0698899,136.943449 C47.4928701,136.710572 44.9706404,136.280789 42.5126472,135.686289 L42.5126472,130.420982 C42.5126472,128.33455 44.2073589,126.634354 46.2912685,126.634354 C48.3751782,126.634354 50.0698899,128.33455 50.0698899,130.420982 L50.0698899,136.943449 L50.0698899,136.943449 Z M67.0736858,135.699542 C64.6138033,136.290256 62.0934629,136.720038 59.5164432,136.949129 L59.5164432,130.419089 C59.5164432,128.332656 61.2111548,126.63246 63.2950645,126.63246 C65.3789742,126.63246 67.0736858,128.332656 67.0736858,130.419089 L67.0736858,135.699542 L67.0736858,135.699542 Z M72.7416178,134.006919 C71.5041193,134.457528 70.2420598,134.85323 68.9629965,135.21296 L68.9629965,130.420982 C68.9629965,127.28944 66.4199843,124.741039 63.2950645,124.741039 C60.1701447,124.741039 57.6271325,127.28944 57.6271325,130.420982 L57.6271325,137.077875 C56.699481,137.125207 55.7661615,137.159287 54.8252848,137.159287 C53.8636257,137.159287 52.9095238,137.125207 51.9592005,137.074088 L51.9592005,130.420982 C51.9592005,127.28944 49.4161884,124.741039 46.2912685,124.741039 C43.1663487,124.741039 40.6233366,127.28944 40.6233366,130.420982 L40.6233366,135.197814 C39.3442732,134.836191 38.0822137,134.436701 36.8447152,133.984199 L36.8447152,121.692804 L72.7416178,121.692804 L72.7416178,134.006919 L72.7416178,134.006919 Z M72.7416178,119.799489 L36.8447152,119.799489 L36.8447152,116.012861 L72.7416178,116.012861 L72.7416178,119.799489 L72.7416178,119.799489 Z M80.2988604,102.759662 L79.3542051,102.759662 C78.8327554,102.759662 78.4095498,103.181871 78.4095498,103.706319 C78.4095498,104.22698 78.8327554,104.652976 79.3542051,104.652976 L80.2988604,104.652976 L80.2988604,130.545941 C78.471897,131.56265 76.5806971,132.473335 74.6309285,133.268526 L74.6309285,121.694697 L75.5755838,121.694697 C76.0970335,121.694697 76.5202391,121.268701 76.5202391,120.74804 C76.5202391,120.223592 76.0970335,119.801383 75.5755838,119.801383 L74.6309285,119.801383 L74.6309285,115.068097 C74.6309285,114.543649 74.2077229,114.12144 73.6862731,114.12144 L70.8523071,114.12144 L70.8523071,104.654869 L71.7969625,104.654869 C72.3184122,104.654869 72.7416178,104.228874 72.7416178,103.708212 C72.7416178,103.183764 72.3184122,102.761555 71.7969625,102.761555 L70.8523071,102.761555 L70.8523071,98.9749268 L71.8744242,98.9749268 C72.3958739,98.9749268 72.7416178,98.5205314 72.7416178,97.9979767 L72.7416178,91.4016701 L78.4095498,91.4016701 L78.4095498,97.9960834 C78.4095498,98.5167448 78.9177744,98.9730335 79.4392241,98.9730335 L80.2988604,98.9730335 L80.2988604,102.759662 L80.2988604,102.759662 Z M80.2988604,91.3997768 L91.6347244,91.3997768 L91.6347244,97.0797193 L80.2988604,97.0797193 L80.2988604,91.3997768 L80.2988604,91.3997768 Z M89.7454138,123.822782 C87.4026685,125.913001 84.8766602,127.802528 82.1881711,129.447818 L82.1881711,104.652976 L89.7454138,104.652976 L89.7454138,123.822782 L89.7454138,123.822782 Z M89.7454138,102.759662 L82.1881711,102.759662 L82.1881711,98.9730335 L89.7454138,98.9730335 L89.7454138,102.759662 L89.7454138,102.759662 Z M91.6347244,122.058213 L91.6347244,104.652976 L92.5793797,104.652976 C93.1008295,104.652976 93.5240351,104.22698 93.5240351,103.706319 C93.5240351,103.181871 93.1008295,102.759662 92.5793797,102.759662 L91.6347244,102.759662 L91.6347244,98.9730335 L92.6795132,98.9730335 C93.200963,98.9730335 93.5240351,98.5186381 93.5240351,97.9960834 L93.5240351,91.3997768 L106.962702,91.3997768 C105.385127,103.333336 99.8154396,114.019201 91.6347244,122.058213 L91.6347244,122.058213 Z M93.9604658,89.5064626 L95.4360175,85.0609609 C95.5323723,84.7731772 95.4813609,84.458887 95.305655,84.2108628 C95.1280598,83.9666253 94.8427739,83.8265201 94.5385949,83.8265201 L92.945906,83.8265201 L74.032017,70.5733208 L87.8561031,70.5733208 L87.8561031,73.3905723 C87.8561031,73.9112337 88.3737742,74.3599492 88.8971133,74.3599492 L96.4638025,74.3599492 C96.9852522,74.3599492 97.3026564,73.913127 97.3026564,73.3905723 L97.3026564,70.5733208 L105.587284,70.5733208 C106.790775,74.9923161 107.436919,79.6404024 107.436919,84.4361672 C107.436919,86.1439366 107.348121,87.8346662 107.189419,89.5064626 L93.9604658,89.5064626 L93.9604658,89.5064626 Z" id="Shape" sketch:type="MSShapeGroup"/>
            <g id="Group" transform="translate(44.826229, 0.800164)" sketch:type="MSShapeGroup">
                <path d="M12.2200642,1.95118512 C12.8479776,1.67067578 13.474865,1.59556659 14.0254943,1.81944363 C14.0733824,1.83891418 14.1208367,1.86068195 14.1678868,1.8848331 C14.4607592,2.03516663 14.6868538,2.20421789 14.857012,2.38675872 C15.0359947,2.57876623 15.1448107,2.77570898 15.2017945,2.96965604 C15.2346002,3.08131169 15.2433368,3.16359153 15.2420493,3.19923709 C15.2422892,3.19334648 15.2755395,3.65185796 15.2755395,3.65185796 L15.320231,4.54749329 L15.3147218,5.00878437 L15.2692126,8.81936243 L15.2755389,8.73055762 C15.26211,8.83305283 15.2220181,9.03715111 15.1453919,9.3072917 C15.0163122,9.76235311 14.8318783,10.2168928 14.585356,10.6354934 C13.9657705,11.6875644 13.0748674,12.3314098 11.8095795,12.4316688 C10.7945891,12.5120947 9.48060283,12.5609636 7.941499,12.5823152 C6.34279289,12.6044937 4.62920283,12.5959693 2.97403298,12.5682716 C2.62798352,12.5624807 2.3130754,12.556278 2.03547715,12.5500783 C1.86927032,12.5463663 1.75267993,12.5434872 1.6918691,12.5418563 L2.27392471,13.7864127 L11.9035207,2.06621233 L11.7579868,2.20261864 C11.8328008,2.14880372 11.9958077,2.05136776 12.2200642,1.95118512 Z M10.7608892,1.0272891 L10.6971642,1.10484903 L1.0675682,12.8250494 L0.0796082681,14.0274974 L1.64962381,14.0696058 C1.71273087,14.0712984 1.83166935,14.0742354 2.00029552,14.0780014 C2.28075226,14.084265 2.59858949,14.0905254 2.94766885,14.0963669 C4.61761069,14.1243119 6.34636525,14.1329117 7.96335622,14.1104796 C9.53376575,14.0886936 10.8789567,14.0386642 11.9340331,13.955062 C13.7523161,13.8109847 15.0700243,12.8586921 15.9277379,11.4022741 C16.4719908,10.4781197 16.7308223,9.5656268 16.8146076,8.92614191 L16.8209338,8.8373371 L16.8209344,5.55464125 L17.549187,5.14137946 C17.8351714,4.99733019 18.1211557,4.85328091 18.1211557,4.85328091 C19.4304394,4.19379925 19.4304397,4.19379927 19.4304397,4.19379927 L16.692471,2.54485012 C16.57082,2.13080558 16.3463902,1.72461709 16.0001657,1.3531973 C15.7062958,1.03794204 15.3356458,0.760806577 14.8851313,0.529554186 C14.7972266,0.484432104 14.7080397,0.443521137 14.6176701,0.406778303 C13.606032,-0.00453754425 12.5610285,0.12066736 11.5790143,0.559364989 C11.2488188,0.706874066 10.9974462,0.857129825 10.842698,0.968442714 L10.7608892,1.0272891 Z" id="Shape"/>
                <path d="M1.98874606,13.9653383 C2.07008556,13.9326052 2.22228156,13.8712267 2.43521821,13.785143 C2.78994351,13.6417384 3.18516722,13.481513 3.61077737,13.3084054 C4.8269348,12.8137599 6.04314999,12.3149044 7.17867251,11.8432834 C7.30773627,11.7896604 7.30773627,11.7896604 7.43671781,11.7359955 C10.0672784,10.6411066 11.7798144,9.89394657 12.3122958,9.5862669 C13.3135792,9.00770293 13.7389528,7.32409296 13.2832443,5.98305472 C12.7179972,4.31967165 11.0393591,3.50663322 8.58511452,3.96492015 L8.87419882,5.46648371 C10.6090826,5.14252475 11.5093663,5.57857186 11.8116412,6.46809251 C12.0540384,7.18140781 11.8226447,8.09725388 11.5270028,8.26808237 C11.0835815,8.5243011 9.3594333,9.27652745 6.8326147,10.328237 C6.70419037,10.38167 6.70419037,10.38167 6.57565967,10.4350715 C5.44409451,10.9050489 4.23128719,11.4025066 3.01842211,11.895813 C2.59387439,12.0684885 2.19966578,12.2283024 1.84592618,12.3713084 C1.63378389,12.4570711 1.48235208,12.5181414 1.40175675,12.550575 L1.98874606,13.9653383 L1.98874606,13.9653383 Z" id="Path"/>
                <path d="M7.75914252,14.5688535 L7.75914252,15.5438557 L7.75914252,16.3080136 L9.31097102,16.3080136 L9.31097102,15.5438557 L9.31097102,14.5688535 L9.31097102,13.8046955 L7.75914252,13.8046955 L7.75914252,14.5688535 L7.75914252,14.5688535 Z" id="Shape"/>
                <path d="M10.8627995,14.5688535 L10.8627995,15.5438557 L10.8627995,16.3080136 L12.414628,16.3080136 L12.414628,15.5438557 L12.414628,14.5688535 L12.414628,13.8046955 L10.8627995,13.8046955 L10.8627995,14.5688535 L10.8627995,14.5688535 Z" id="Shape"/>
            </g>
        </g>
    </g>
</svg>