<svg width="1280" height="960" xmlns="http://www.w3.org/2000/svg">
 <!-- Created with Method Draw - http://github.com/duopixel/Method-Draw/ -->
 <g>
  <title>background</title>
  <rect fill="#ff0000" id="canvas_background" height="962" width="1282" y="-1" x="-1"/>
  <g display="none" overflow="visible" y="0" x="0" height="100%" width="100%" id="canvasGrid">
   <rect fill="url(#gridpattern)" stroke-width="0" y="0" x="0" height="100%" width="100%"/>
  </g>
 </g>
 <g>
  <title>Layer 1</title>
  <path id="svg_1" d="m391.697845,241.313477l189.685822,0l58.610352,-180.204098l58.620972,180.204098l189.687866,0l-153.469727,111.370819l58.622131,180.202911l-153.461243,-111.373322l-153.457642,111.373322l58.610962,-180.202911l-153.449493,-111.370819l0,0z" stroke-width="1.5"  fill="#fff"/>
  <path id="svg_2" d="m-52.235653,139.798416l0.569134,0l0.175865,-0.540665l0.175865,0.540665l0.569134,0l-0.460438,0.334152l0.175877,0.54068l-0.460438,-0.334167l-0.460438,0.334167l0.175877,-0.54068l-0.460438,-0.334152l0,0z" fill-opacity="null" stroke-opacity="null" stroke-width="1.5" fill="#fff"/>
  <path id="svg_3" d="m498.424133,276.248077l108.153687,0l33.422302,-102.750122l33.424072,102.750122l108.151672,0l-87.49646,63.500458l33.418945,102.74881l-87.49823,-63.502625l-87.500427,63.502625l33.422363,-102.74881l-87.497925,-63.500458l0,0z" stroke-opacity="null" stroke-width="1.5" fill="#ff0000"/>
  <path transform="rotate(-74.2912, 642.838, 315.24)" id="svg_5" d="m621.280212,340.29895c1.522583,0.667419 3.597107,2.228088 5.199463,1.657471c1.055664,-0.370605 1.667786,-2.460327 2.322998,-3.561462c4.929016,-8.273193 10.284851,-17.682312 14.180969,-25.731018c0,-0.359802 0.224976,-0.637024 -0.109558,-1.125549c2.180237,-3.025208 3.659668,-6.347656 6.042725,-9.714539c0.754517,-1.068542 1.521118,-2.552185 2.578613,-2.980164l1.953674,-0.695435c2.483398,-0.544495 4.299194,-0.526794 6.032837,0.893738c0.875427,0.724426 1.28064,1.919006 2.131836,2.638c0.575378,0.490173 2.763,1.69812 3.5755,1.511658c0.631958,-0.145996 1.15509,-0.68866 1.600342,-1.376648l1.542603,-2.43103c0.433105,-0.690796 0.680664,-1.356873 0.475891,-1.888245c-0.260559,-0.684753 -2.642822,-1.588013 -3.441162,-1.730164c-1.170959,-0.212646 -2.56189,0.152954 -3.753174,-0.077271c-2.345032,-0.459778 -3.355896,-1.743591 -4.180725,-3.818298c-5.783142,-2.899597 -13.56897,-4.782837 -22.637329,-2.352722c-2.457092,0.660034 -4.816406,1.160889 -6.433899,2.501953c-0.324829,0.778381 0.316895,0.933838 0.98938,0.924988c-0.525635,0.40741 -1.377258,0.644531 -0.884094,1.602478c5.532532,-2.167175 16.280823,-2.915894 17.007446,1.519348c0.160034,0.986938 -0.873474,2.346497 -1.509644,3.468811c-2.007202,3.543884 -4.462341,6.416992 -6.243591,9.625671c-0.657104,0.031494 -0.809631,0.338806 -1.161926,0.542175c-5.7771,7.184326 -12.089294,16.147827 -17.523682,24.187195c-0.725342,1.069885 -2.435181,2.650635 -2.221619,3.603516c0.32019,1.457458 2.946716,2.136353 4.466125,2.805542l0,0z" fill-opacity="null" stroke-opacity="null" stroke-width="1.5"  fill="#fff"/>
  <path id="svg_9" d="m680.786743,280.239014c0.766174,5.106689 -1.397705,9.965759 -3.084351,14.377136c-3.595764,7.781219 -7.766602,15.271393 -13.000244,21.318726c-3.571228,3.831238 -6.789673,8.243896 -10.834534,11.279755c-5.283752,4.642883 -10.962036,8.444977 -16.84668,11.607361c-4.379639,2.487793 -8.96875,4.251221 -13.65802,5.406403c-1.363464,0.461792 -5.178223,1.763275 -2.80481,-1.291199c1.965698,-1.082428 4.060669,-1.872955 6.038452,-3.001617c9.609314,-5.142456 19.816223,-9.658783 27.564087,-19.038269c1.285645,-2.223267 -2.463501,1.200989 -3.110596,2.140106c-6.463928,5.999695 -13.848511,10.021027 -21.135742,13.99704c-3.705383,1.598602 -7.755371,5.010254 -11.69043,2.590179c-3.401672,-1.695221 0.812683,-1.953674 2.314026,-2.59906c6.680359,-2.475037 13.436218,-4.855316 19.566589,-9.236572c3.499207,-1.666473 6.441223,-4.740784 9.58667,-7.272919c3.395813,-3.058502 6.505493,-6.63205 9.812927,-9.856873c2.164185,-2.13974 4.314941,-4.297668 6.103577,-6.979553c3.030579,-3.951782 5.970154,-8.015167 8.715637,-12.308289c1.796265,-2.639221 3.811523,-5.056427 5.074768,-8.222382l1.388672,-2.909973l0,0zm-70.53186,49.878296c0.414917,-0.017487 0.839539,0.101318 1.201538,0.411377c2.673096,1.741974 2.099854,4.979584 3.627075,7.467651c1.145996,1.993591 2.484009,2.98877 4.392883,3.736115c-0.381348,0.994751 -1.145874,2.488983 -1.145874,3.734039c0,2.737122 2.482483,5.227386 4.393005,4.978058c0.766113,-0.24762 2.48407,-1.491821 3.056152,0c0.191284,0.499542 0.191284,0.998291 0,1.244934c0,0.9953 -0.954773,1.49472 -1.719482,1.993256c-2.098267,0.746155 -4.391235,-0.249573 -6.113098,-1.743713c-1.334656,-0.994934 -2.288574,-2.736969 -2.672974,-4.730225l-0.381226,-3.236542c-0.192444,-0.995819 -0.953491,-1.245056 -1.909058,-2.987152c-1.145996,-1.990356 -2.29303,-5.476837 -3.822083,-6.970154c-0.572266,-0.499573 -1.143555,-0.746796 -1.908936,-0.995758c0.383057,-0.748535 0.765381,-1.244873 1.145691,-1.991333c0.383057,-0.249481 0.763245,-0.748444 1.147461,-0.748444c0.215149,-0.091858 0.461121,-0.153015 0.708923,-0.162109zm-8.087402,9.397949c0.71759,-0.010803 1.467163,0.195068 2.221313,0.47467l-1.529358,1.245056c0.381653,0.995911 1.338135,2.98645 1.147888,4.231506c-0.192322,2.490448 -2.865723,2.490448 -4.011475,0.99588c-1.338196,-1.991364 -1.338196,-4.979858 0.572144,-6.472443c0.501282,-0.328064 1.039001,-0.467712 1.599487,-0.47467zm3.682312,1.221252c0.150452,0 0.295837,0.001953 0.441833,0.008942c1.058411,0.074036 2.117371,0.178864 3.177917,0.239655c0.662415,0.011749 1.341187,-0.00174 1.986877,0.249878c0.87262,0.724121 1.455322,1.927765 1.796326,3.181091c0.045227,0.17984 0.083923,0.365814 0.114075,0.551758c-1.063293,0.628021 -2.249817,0.559784 -3.386658,0.505493c-0.689819,-0.024292 -1.377197,0.089417 -2.063293,0.133331c-0.494751,0.028412 -0.983765,0.116577 -1.47522,0.094452c-0.605347,-0.026001 -1.160706,-0.472687 -1.480774,-1.138214c-0.276123,-0.566345 -0.53302,-1.152924 -0.701843,-1.787109c-0.137817,-0.571106 -0.163269,-1.363312 0.290222,-1.704956c0.396545,-0.284424 0.851685,-0.337036 1.300537,-0.33432l0,0zm-0.696838,5.725861c0.189453,0.249268 0.381409,0.249268 0.570984,0.499023c0.192322,1.242218 -2.291748,4.231781 -2.674927,1.491913c0.958313,-0.496368 1.531616,-0.995026 2.103943,-1.990936z" stroke-width="1.5" stroke="#f22b2b" fill="#ffffff"/>
 </g>
</svg>